<mxfile host="app.diagrams.net" modified="2021-01-02T03:26:53.476Z" agent="5.0 (Macintosh; Intel Mac OS X 10_15_6) AppleWebKit/605.1.15 (KHTML, like Gecko) Version/14.0.1 Safari/605.1.15" etag="CWLeOd2gUcEJk6pr43Rn" version="14.1.7" type="github" pages="6">
  <diagram id="KOSnGOioNKZM-5J3Sp79" name="Page-2">
    <mxGraphModel dx="868" dy="733" grid="0" gridSize="10" guides="1" tooltips="1" connect="1" arrows="1" fold="1" page="1" pageScale="1" pageWidth="1400" pageHeight="850" math="0" shadow="0">
      <root>
        <mxCell id="-jTCPdRfbR5Y2La_rq5T-0" />
        <mxCell id="-jTCPdRfbR5Y2La_rq5T-1" parent="-jTCPdRfbR5Y2La_rq5T-0" />
        <mxCell id="-jTCPdRfbR5Y2La_rq5T-2" value="" style="rounded=0;whiteSpace=wrap;html=1;" parent="-jTCPdRfbR5Y2La_rq5T-1" vertex="1">
          <mxGeometry x="40" y="92.5" width="390" height="407.5" as="geometry" />
        </mxCell>
        <mxCell id="-jTCPdRfbR5Y2La_rq5T-21" value="" style="rounded=0;whiteSpace=wrap;html=1;align=left;fillColor=#CCE5FF;" parent="-jTCPdRfbR5Y2La_rq5T-1" vertex="1">
          <mxGeometry x="55" y="120" width="175" height="290" as="geometry" />
        </mxCell>
        <mxCell id="-jTCPdRfbR5Y2La_rq5T-3" value="Active Directory" style="text;html=1;strokeColor=none;fillColor=none;align=left;verticalAlign=middle;whiteSpace=wrap;rounded=0;" parent="-jTCPdRfbR5Y2La_rq5T-1" vertex="1">
          <mxGeometry x="40" y="70" width="320" height="20" as="geometry" />
        </mxCell>
        <mxCell id="-jTCPdRfbR5Y2La_rq5T-5" value="Staff &amp;amp; Partners" style="text;html=1;strokeColor=none;fillColor=none;align=left;verticalAlign=middle;whiteSpace=wrap;rounded=0;" parent="-jTCPdRfbR5Y2La_rq5T-1" vertex="1">
          <mxGeometry x="54" y="100" width="110" height="20" as="geometry" />
        </mxCell>
        <mxCell id="-jTCPdRfbR5Y2La_rq5T-6" value="" style="rounded=0;whiteSpace=wrap;html=1;" parent="-jTCPdRfbR5Y2La_rq5T-1" vertex="1">
          <mxGeometry x="65" y="250" width="155" height="150" as="geometry" />
        </mxCell>
        <mxCell id="-jTCPdRfbR5Y2La_rq5T-7" value="Groups" style="text;html=1;strokeColor=none;fillColor=none;align=left;verticalAlign=middle;whiteSpace=wrap;rounded=0;" parent="-jTCPdRfbR5Y2La_rq5T-1" vertex="1">
          <mxGeometry x="65" y="230" width="110" height="20" as="geometry" />
        </mxCell>
        <mxCell id="-jTCPdRfbR5Y2La_rq5T-8" value="" style="rounded=0;whiteSpace=wrap;html=1;align=left;" parent="-jTCPdRfbR5Y2La_rq5T-1" vertex="1">
          <mxGeometry x="65" y="145" width="155" height="75" as="geometry" />
        </mxCell>
        <mxCell id="-jTCPdRfbR5Y2La_rq5T-9" value="Permitted Logins" style="text;html=1;strokeColor=none;fillColor=none;align=left;verticalAlign=middle;whiteSpace=wrap;rounded=0;" parent="-jTCPdRfbR5Y2La_rq5T-1" vertex="1">
          <mxGeometry x="65" y="125" width="110" height="20" as="geometry" />
        </mxCell>
        <mxCell id="-jTCPdRfbR5Y2La_rq5T-10" value="Active Directory" style="text;html=1;strokeColor=none;fillColor=none;align=left;verticalAlign=middle;whiteSpace=wrap;rounded=0;" parent="-jTCPdRfbR5Y2La_rq5T-1" vertex="1">
          <mxGeometry x="75" y="152.5" width="100" height="20" as="geometry" />
        </mxCell>
        <mxCell id="-jTCPdRfbR5Y2La_rq5T-11" value="Facebook" style="text;html=1;strokeColor=none;fillColor=none;align=left;verticalAlign=middle;whiteSpace=wrap;rounded=0;" parent="-jTCPdRfbR5Y2La_rq5T-1" vertex="1">
          <mxGeometry x="75" y="172.5" width="100" height="20" as="geometry" />
        </mxCell>
        <mxCell id="-jTCPdRfbR5Y2La_rq5T-12" value="Google" style="text;html=1;strokeColor=none;fillColor=none;align=left;verticalAlign=middle;whiteSpace=wrap;rounded=0;" parent="-jTCPdRfbR5Y2La_rq5T-1" vertex="1">
          <mxGeometry x="75" y="192.5" width="100" height="20" as="geometry" />
        </mxCell>
        <mxCell id="-jTCPdRfbR5Y2La_rq5T-13" value="" style="rounded=0;whiteSpace=wrap;html=1;align=left;" parent="-jTCPdRfbR5Y2La_rq5T-1" vertex="1">
          <mxGeometry x="72" y="275" width="138" height="25" as="geometry" />
        </mxCell>
        <mxCell id="-jTCPdRfbR5Y2La_rq5T-14" value="Internal Staff&amp;nbsp;" style="text;html=1;strokeColor=none;fillColor=none;align=left;verticalAlign=middle;whiteSpace=wrap;rounded=0;" parent="-jTCPdRfbR5Y2La_rq5T-1" vertex="1">
          <mxGeometry x="72" y="255" width="110" height="20" as="geometry" />
        </mxCell>
        <mxCell id="-jTCPdRfbR5Y2La_rq5T-15" value="" style="rounded=0;whiteSpace=wrap;html=1;align=left;" parent="-jTCPdRfbR5Y2La_rq5T-1" vertex="1">
          <mxGeometry x="72" y="322.5" width="138" height="67.5" as="geometry" />
        </mxCell>
        <mxCell id="-jTCPdRfbR5Y2La_rq5T-16" value="Partners" style="text;html=1;strokeColor=none;fillColor=none;align=left;verticalAlign=middle;whiteSpace=wrap;rounded=0;" parent="-jTCPdRfbR5Y2La_rq5T-1" vertex="1">
          <mxGeometry x="72" y="302.5" width="110" height="20" as="geometry" />
        </mxCell>
        <mxCell id="-jTCPdRfbR5Y2La_rq5T-17" value="Moderator" style="text;html=1;strokeColor=none;fillColor=none;align=left;verticalAlign=middle;whiteSpace=wrap;rounded=0;" parent="-jTCPdRfbR5Y2La_rq5T-1" vertex="1">
          <mxGeometry x="77" y="277" width="100" height="20" as="geometry" />
        </mxCell>
        <mxCell id="-jTCPdRfbR5Y2La_rq5T-18" value="Technical Administrator" style="text;html=1;strokeColor=none;fillColor=none;align=left;verticalAlign=middle;whiteSpace=wrap;rounded=0;" parent="-jTCPdRfbR5Y2La_rq5T-1" vertex="1">
          <mxGeometry x="77" y="327.5" width="133" height="20" as="geometry" />
        </mxCell>
        <mxCell id="-jTCPdRfbR5Y2La_rq5T-19" value="Billing Administrator" style="text;html=1;strokeColor=none;fillColor=none;align=left;verticalAlign=middle;whiteSpace=wrap;rounded=0;" parent="-jTCPdRfbR5Y2La_rq5T-1" vertex="1">
          <mxGeometry x="77" y="347.5" width="133" height="20" as="geometry" />
        </mxCell>
        <mxCell id="-jTCPdRfbR5Y2La_rq5T-20" value="Staff" style="text;html=1;strokeColor=none;fillColor=none;align=left;verticalAlign=middle;whiteSpace=wrap;rounded=0;" parent="-jTCPdRfbR5Y2La_rq5T-1" vertex="1">
          <mxGeometry x="77" y="367.5" width="133" height="20" as="geometry" />
        </mxCell>
        <mxCell id="-jTCPdRfbR5Y2La_rq5T-22" value="" style="rounded=0;whiteSpace=wrap;html=1;align=left;fillColor=#E6FFCC;" parent="-jTCPdRfbR5Y2La_rq5T-1" vertex="1">
          <mxGeometry x="240" y="120" width="175" height="290" as="geometry" />
        </mxCell>
        <mxCell id="-jTCPdRfbR5Y2La_rq5T-23" value="" style="rounded=0;whiteSpace=wrap;html=1;align=left;" parent="-jTCPdRfbR5Y2La_rq5T-1" vertex="1">
          <mxGeometry x="250" y="145" width="155" height="75" as="geometry" />
        </mxCell>
        <mxCell id="-jTCPdRfbR5Y2La_rq5T-24" value="Live.com" style="text;html=1;strokeColor=none;fillColor=none;align=left;verticalAlign=middle;whiteSpace=wrap;rounded=0;" parent="-jTCPdRfbR5Y2La_rq5T-1" vertex="1">
          <mxGeometry x="260" y="152.5" width="100" height="20" as="geometry" />
        </mxCell>
        <mxCell id="-jTCPdRfbR5Y2La_rq5T-25" value="Facebook" style="text;html=1;strokeColor=none;fillColor=none;align=left;verticalAlign=middle;whiteSpace=wrap;rounded=0;" parent="-jTCPdRfbR5Y2La_rq5T-1" vertex="1">
          <mxGeometry x="260" y="172.5" width="100" height="20" as="geometry" />
        </mxCell>
        <mxCell id="-jTCPdRfbR5Y2La_rq5T-26" value="Google" style="text;html=1;strokeColor=none;fillColor=none;align=left;verticalAlign=middle;whiteSpace=wrap;rounded=0;" parent="-jTCPdRfbR5Y2La_rq5T-1" vertex="1">
          <mxGeometry x="260" y="192.5" width="100" height="20" as="geometry" />
        </mxCell>
        <mxCell id="-jTCPdRfbR5Y2La_rq5T-27" value="Permitted Logins" style="text;html=1;strokeColor=none;fillColor=none;align=left;verticalAlign=middle;whiteSpace=wrap;rounded=0;" parent="-jTCPdRfbR5Y2La_rq5T-1" vertex="1">
          <mxGeometry x="250" y="125" width="110" height="20" as="geometry" />
        </mxCell>
        <mxCell id="-jTCPdRfbR5Y2La_rq5T-28" value="Public" style="text;html=1;strokeColor=none;fillColor=none;align=left;verticalAlign=middle;whiteSpace=wrap;rounded=0;" parent="-jTCPdRfbR5Y2La_rq5T-1" vertex="1">
          <mxGeometry x="240" y="100" width="110" height="20" as="geometry" />
        </mxCell>
        <mxCell id="-jTCPdRfbR5Y2La_rq5T-29" value="" style="rounded=0;whiteSpace=wrap;html=1;align=left;fillColor=#CCE5FF;" parent="-jTCPdRfbR5Y2La_rq5T-1" vertex="1">
          <mxGeometry x="56" y="430" width="175" height="60" as="geometry" />
        </mxCell>
        <mxCell id="-jTCPdRfbR5Y2La_rq5T-30" value="" style="rounded=0;whiteSpace=wrap;html=1;align=left;fillColor=#E6FFCC;" parent="-jTCPdRfbR5Y2La_rq5T-1" vertex="1">
          <mxGeometry x="240" y="430" width="175" height="60" as="geometry" />
        </mxCell>
        <mxCell id="-jTCPdRfbR5Y2La_rq5T-31" value="MSAL Config" style="text;html=1;strokeColor=none;fillColor=none;align=left;verticalAlign=middle;whiteSpace=wrap;rounded=0;" parent="-jTCPdRfbR5Y2La_rq5T-1" vertex="1">
          <mxGeometry x="54" y="410" width="110" height="20" as="geometry" />
        </mxCell>
        <mxCell id="-jTCPdRfbR5Y2La_rq5T-32" value="MSAL Config" style="text;html=1;strokeColor=none;fillColor=none;align=left;verticalAlign=middle;whiteSpace=wrap;rounded=0;" parent="-jTCPdRfbR5Y2La_rq5T-1" vertex="1">
          <mxGeometry x="240" y="410" width="110" height="20" as="geometry" />
        </mxCell>
        <mxCell id="-jTCPdRfbR5Y2La_rq5T-33" value="Authority: Tenant" style="text;html=1;strokeColor=none;fillColor=none;align=left;verticalAlign=middle;whiteSpace=wrap;rounded=0;" parent="-jTCPdRfbR5Y2La_rq5T-1" vertex="1">
          <mxGeometry x="65" y="440" width="110" height="20" as="geometry" />
        </mxCell>
        <mxCell id="-jTCPdRfbR5Y2La_rq5T-34" value="Authority: Common" style="text;html=1;strokeColor=none;fillColor=none;align=left;verticalAlign=middle;whiteSpace=wrap;rounded=0;" parent="-jTCPdRfbR5Y2La_rq5T-1" vertex="1">
          <mxGeometry x="250" y="440" width="110" height="20" as="geometry" />
        </mxCell>
        <mxCell id="-jTCPdRfbR5Y2La_rq5T-35" value="Scope: custom api" style="text;html=1;strokeColor=none;fillColor=none;align=left;verticalAlign=middle;whiteSpace=wrap;rounded=0;" parent="-jTCPdRfbR5Y2La_rq5T-1" vertex="1">
          <mxGeometry x="65" y="460" width="110" height="20" as="geometry" />
        </mxCell>
        <mxCell id="-jTCPdRfbR5Y2La_rq5T-36" value="Scope: custom api" style="text;html=1;strokeColor=none;fillColor=none;align=left;verticalAlign=middle;whiteSpace=wrap;rounded=0;" parent="-jTCPdRfbR5Y2La_rq5T-1" vertex="1">
          <mxGeometry x="250" y="460" width="110" height="20" as="geometry" />
        </mxCell>
      </root>
    </mxGraphModel>
  </diagram>
  <diagram id="YZyiZrlpQ1N9jck-vG09" name="Request">
    <mxGraphModel dx="868" dy="733" grid="1" gridSize="10" guides="1" tooltips="1" connect="1" arrows="1" fold="1" page="1" pageScale="1" pageWidth="1400" pageHeight="850" math="0" shadow="0">
      <root>
        <mxCell id="0" />
        <mxCell id="1" parent="0" />
        <mxCell id="OmryVCfLiUM44Uoox4Ih-59" style="edgeStyle=orthogonalEdgeStyle;rounded=0;orthogonalLoop=1;jettySize=auto;html=1;entryX=0.5;entryY=0;entryDx=0;entryDy=0;fontFamily=Helvetica;fontSize=4;" parent="1" source="JCwaXL90y9zT6dZC9Zp4-1" target="OmryVCfLiUM44Uoox4Ih-43" edge="1">
          <mxGeometry relative="1" as="geometry" />
        </mxCell>
        <mxCell id="JCwaXL90y9zT6dZC9Zp4-1" value="" style="rounded=0;whiteSpace=wrap;html=1;" parent="1" vertex="1">
          <mxGeometry x="40" y="160" width="220" height="290" as="geometry" />
        </mxCell>
        <mxCell id="Tpt4DIQqjev-rOEuiUFe-9" style="edgeStyle=orthogonalEdgeStyle;rounded=0;orthogonalLoop=1;jettySize=auto;html=1;entryX=0.5;entryY=0;entryDx=0;entryDy=0;fontFamily=Helvetica;fontSize=8;exitX=0.696;exitY=0.998;exitDx=0;exitDy=0;exitPerimeter=0;" parent="1" source="OmryVCfLiUM44Uoox4Ih-1" target="Tpt4DIQqjev-rOEuiUFe-7" edge="1">
          <mxGeometry relative="1" as="geometry" />
        </mxCell>
        <mxCell id="OmryVCfLiUM44Uoox4Ih-1" value="" style="rounded=0;whiteSpace=wrap;html=1;" parent="1" vertex="1">
          <mxGeometry x="320" y="160" width="220" height="290" as="geometry" />
        </mxCell>
        <mxCell id="OmryVCfLiUM44Uoox4Ih-3" value="HOME PAGE" style="text;html=1;strokeColor=none;fillColor=none;align=center;verticalAlign=middle;whiteSpace=wrap;rounded=0;fontSize=5;" parent="1" vertex="1">
          <mxGeometry x="40" y="140" width="40" height="20" as="geometry" />
        </mxCell>
        <mxCell id="OmryVCfLiUM44Uoox4Ih-5" value="" style="rounded=0;whiteSpace=wrap;html=1;fontSize=5;" parent="1" vertex="1">
          <mxGeometry x="370" y="230" width="120" height="140" as="geometry" />
        </mxCell>
        <mxCell id="OmryVCfLiUM44Uoox4Ih-6" value="" style="rounded=0;whiteSpace=wrap;html=1;fontSize=5;" parent="1" vertex="1">
          <mxGeometry x="380" y="240" width="100" height="20" as="geometry" />
        </mxCell>
        <mxCell id="OmryVCfLiUM44Uoox4Ih-10" value="" style="group" parent="1" vertex="1" connectable="0">
          <mxGeometry x="90" y="230" width="50" height="76" as="geometry" />
        </mxCell>
        <mxCell id="OmryVCfLiUM44Uoox4Ih-7" value="" style="rounded=0;whiteSpace=wrap;html=1;fontSize=5;" parent="OmryVCfLiUM44Uoox4Ih-10" vertex="1">
          <mxGeometry width="50" height="60" as="geometry" />
        </mxCell>
        <mxCell id="OmryVCfLiUM44Uoox4Ih-8" value="$20/wk $3/da 4 day min" style="text;html=1;strokeColor=none;fillColor=none;align=left;verticalAlign=middle;whiteSpace=wrap;rounded=0;fontSize=4;fontFamily=Helvetica;" parent="OmryVCfLiUM44Uoox4Ih-10" vertex="1">
          <mxGeometry y="60" width="50" height="10" as="geometry" />
        </mxCell>
        <mxCell id="OmryVCfLiUM44Uoox4Ih-9" value="West Chester, PA" style="text;html=1;strokeColor=none;fillColor=none;align=left;verticalAlign=middle;whiteSpace=wrap;rounded=0;fontSize=3;fontFamily=Helvetica;" parent="OmryVCfLiUM44Uoox4Ih-10" vertex="1">
          <mxGeometry y="66" width="50" height="10" as="geometry" />
        </mxCell>
        <mxCell id="OmryVCfLiUM44Uoox4Ih-11" value="" style="group" parent="1" vertex="1" connectable="0">
          <mxGeometry x="145" y="230" width="50" height="76" as="geometry" />
        </mxCell>
        <mxCell id="OmryVCfLiUM44Uoox4Ih-12" value="" style="rounded=0;whiteSpace=wrap;html=1;fontSize=5;" parent="OmryVCfLiUM44Uoox4Ih-11" vertex="1">
          <mxGeometry width="50" height="60" as="geometry" />
        </mxCell>
        <mxCell id="OmryVCfLiUM44Uoox4Ih-13" value="$20/wk $3/da 4 day min" style="text;html=1;strokeColor=none;fillColor=none;align=left;verticalAlign=middle;whiteSpace=wrap;rounded=0;fontSize=4;fontFamily=Helvetica;" parent="OmryVCfLiUM44Uoox4Ih-11" vertex="1">
          <mxGeometry y="60" width="50" height="10" as="geometry" />
        </mxCell>
        <mxCell id="OmryVCfLiUM44Uoox4Ih-14" value="West Chester, PA" style="text;html=1;strokeColor=none;fillColor=none;align=left;verticalAlign=middle;whiteSpace=wrap;rounded=0;fontSize=3;fontFamily=Helvetica;" parent="OmryVCfLiUM44Uoox4Ih-11" vertex="1">
          <mxGeometry y="66" width="50" height="10" as="geometry" />
        </mxCell>
        <mxCell id="OmryVCfLiUM44Uoox4Ih-15" value="" style="group" parent="1" vertex="1" connectable="0">
          <mxGeometry x="200" y="230" width="50" height="76" as="geometry" />
        </mxCell>
        <mxCell id="OmryVCfLiUM44Uoox4Ih-16" value="" style="rounded=0;whiteSpace=wrap;html=1;fontSize=5;" parent="OmryVCfLiUM44Uoox4Ih-15" vertex="1">
          <mxGeometry width="50" height="60" as="geometry" />
        </mxCell>
        <mxCell id="OmryVCfLiUM44Uoox4Ih-17" value="$20/wk $3/da 4 day min" style="text;html=1;strokeColor=none;fillColor=none;align=left;verticalAlign=middle;whiteSpace=wrap;rounded=0;fontSize=4;fontFamily=Helvetica;" parent="OmryVCfLiUM44Uoox4Ih-15" vertex="1">
          <mxGeometry y="60" width="50" height="10" as="geometry" />
        </mxCell>
        <mxCell id="OmryVCfLiUM44Uoox4Ih-18" value="West Chester, PA" style="text;html=1;strokeColor=none;fillColor=none;align=left;verticalAlign=middle;whiteSpace=wrap;rounded=0;fontSize=3;fontFamily=Helvetica;" parent="OmryVCfLiUM44Uoox4Ih-15" vertex="1">
          <mxGeometry y="66" width="50" height="10" as="geometry" />
        </mxCell>
        <mxCell id="OmryVCfLiUM44Uoox4Ih-19" value="" style="group" parent="1" vertex="1" connectable="0">
          <mxGeometry x="90" y="310" width="50" height="76" as="geometry" />
        </mxCell>
        <mxCell id="OmryVCfLiUM44Uoox4Ih-20" value="" style="rounded=0;whiteSpace=wrap;html=1;fontSize=5;" parent="OmryVCfLiUM44Uoox4Ih-19" vertex="1">
          <mxGeometry width="50" height="60" as="geometry" />
        </mxCell>
        <mxCell id="OmryVCfLiUM44Uoox4Ih-21" value="$20/wk $3/da 4 day min" style="text;html=1;strokeColor=none;fillColor=none;align=left;verticalAlign=middle;whiteSpace=wrap;rounded=0;fontSize=4;fontFamily=Helvetica;" parent="OmryVCfLiUM44Uoox4Ih-19" vertex="1">
          <mxGeometry y="60" width="50" height="10" as="geometry" />
        </mxCell>
        <mxCell id="OmryVCfLiUM44Uoox4Ih-22" value="West Chester, PA" style="text;html=1;strokeColor=none;fillColor=none;align=left;verticalAlign=middle;whiteSpace=wrap;rounded=0;fontSize=3;fontFamily=Helvetica;" parent="OmryVCfLiUM44Uoox4Ih-19" vertex="1">
          <mxGeometry y="66" width="50" height="10" as="geometry" />
        </mxCell>
        <mxCell id="OmryVCfLiUM44Uoox4Ih-23" value="" style="group" parent="1" vertex="1" connectable="0">
          <mxGeometry x="145" y="310" width="50" height="76" as="geometry" />
        </mxCell>
        <mxCell id="OmryVCfLiUM44Uoox4Ih-24" value="" style="rounded=0;whiteSpace=wrap;html=1;fontSize=5;" parent="OmryVCfLiUM44Uoox4Ih-23" vertex="1">
          <mxGeometry width="50" height="60" as="geometry" />
        </mxCell>
        <mxCell id="OmryVCfLiUM44Uoox4Ih-25" value="$20/wk $3/da 4 day min" style="text;html=1;strokeColor=none;fillColor=none;align=left;verticalAlign=middle;whiteSpace=wrap;rounded=0;fontSize=4;fontFamily=Helvetica;" parent="OmryVCfLiUM44Uoox4Ih-23" vertex="1">
          <mxGeometry y="60" width="50" height="10" as="geometry" />
        </mxCell>
        <mxCell id="OmryVCfLiUM44Uoox4Ih-26" value="West Chester, PA" style="text;html=1;strokeColor=none;fillColor=none;align=left;verticalAlign=middle;whiteSpace=wrap;rounded=0;fontSize=3;fontFamily=Helvetica;" parent="OmryVCfLiUM44Uoox4Ih-23" vertex="1">
          <mxGeometry y="66" width="50" height="10" as="geometry" />
        </mxCell>
        <mxCell id="OmryVCfLiUM44Uoox4Ih-27" value="" style="group" parent="1" vertex="1" connectable="0">
          <mxGeometry x="200" y="310" width="50" height="76" as="geometry" />
        </mxCell>
        <mxCell id="OmryVCfLiUM44Uoox4Ih-28" value="" style="rounded=0;whiteSpace=wrap;html=1;fontSize=5;" parent="OmryVCfLiUM44Uoox4Ih-27" vertex="1">
          <mxGeometry width="50" height="60" as="geometry" />
        </mxCell>
        <mxCell id="OmryVCfLiUM44Uoox4Ih-29" value="$20/wk $3/da 4 day min" style="text;html=1;strokeColor=none;fillColor=none;align=left;verticalAlign=middle;whiteSpace=wrap;rounded=0;fontSize=4;fontFamily=Helvetica;" parent="OmryVCfLiUM44Uoox4Ih-27" vertex="1">
          <mxGeometry y="60" width="50" height="10" as="geometry" />
        </mxCell>
        <mxCell id="OmryVCfLiUM44Uoox4Ih-30" value="West Chester, PA" style="text;html=1;strokeColor=none;fillColor=none;align=left;verticalAlign=middle;whiteSpace=wrap;rounded=0;fontSize=3;fontFamily=Helvetica;" parent="OmryVCfLiUM44Uoox4Ih-27" vertex="1">
          <mxGeometry y="66" width="50" height="10" as="geometry" />
        </mxCell>
        <mxCell id="OmryVCfLiUM44Uoox4Ih-31" value="" style="rounded=0;whiteSpace=wrap;html=1;fontFamily=Helvetica;fontSize=3;align=left;" parent="1" vertex="1">
          <mxGeometry x="40" y="230" width="40" height="200" as="geometry" />
        </mxCell>
        <mxCell id="OmryVCfLiUM44Uoox4Ih-32" value="" style="rounded=0;whiteSpace=wrap;html=1;fontFamily=Helvetica;fontSize=3;align=left;" parent="1" vertex="1">
          <mxGeometry x="90" y="210" width="160" height="10" as="geometry" />
        </mxCell>
        <mxCell id="OmryVCfLiUM44Uoox4Ih-33" value="" style="rounded=0;whiteSpace=wrap;html=1;fontFamily=Helvetica;fontSize=3;align=left;" parent="1" vertex="1">
          <mxGeometry x="40" y="160" width="220" height="10" as="geometry" />
        </mxCell>
        <mxCell id="OmryVCfLiUM44Uoox4Ih-34" value="" style="rounded=0;whiteSpace=wrap;html=1;fontFamily=Helvetica;fontSize=3;align=left;" parent="1" vertex="1">
          <mxGeometry x="380" y="310" width="100" height="20" as="geometry" />
        </mxCell>
        <mxCell id="OmryVCfLiUM44Uoox4Ih-35" value="" style="rounded=0;whiteSpace=wrap;html=1;fontFamily=Helvetica;fontSize=3;align=left;" parent="1" vertex="1">
          <mxGeometry x="380" y="338" width="100" height="20" as="geometry" />
        </mxCell>
        <mxCell id="OmryVCfLiUM44Uoox4Ih-38" value="" style="rounded=0;whiteSpace=wrap;html=1;labelBackgroundColor=none;fontFamily=Helvetica;fontSize=3;align=left;fillColor=#E0E0E0;" parent="1" vertex="1">
          <mxGeometry x="380" y="310" width="20" height="20" as="geometry" />
        </mxCell>
        <mxCell id="OmryVCfLiUM44Uoox4Ih-39" value="" style="rounded=0;whiteSpace=wrap;html=1;labelBackgroundColor=none;fontFamily=Helvetica;fontSize=3;align=left;fillColor=#E0E0E0;" parent="1" vertex="1">
          <mxGeometry x="380" y="338" width="20" height="20" as="geometry" />
        </mxCell>
        <mxCell id="OmryVCfLiUM44Uoox4Ih-36" value="&lt;font style=&quot;font-size: 11px&quot;&gt;F&lt;/font&gt;" style="text;html=1;strokeColor=none;fillColor=none;align=center;verticalAlign=middle;whiteSpace=wrap;rounded=0;fontFamily=Helvetica;fontSize=3;labelBackgroundColor=none;" parent="1" vertex="1">
          <mxGeometry x="380" y="310" width="20" height="20" as="geometry" />
        </mxCell>
        <mxCell id="OmryVCfLiUM44Uoox4Ih-37" value="&lt;font style=&quot;font-size: 11px&quot;&gt;G&lt;/font&gt;" style="text;html=1;strokeColor=none;fillColor=none;align=center;verticalAlign=middle;whiteSpace=wrap;rounded=0;fontFamily=Helvetica;fontSize=3;" parent="1" vertex="1">
          <mxGeometry x="380" y="338" width="20" height="20" as="geometry" />
        </mxCell>
        <mxCell id="OmryVCfLiUM44Uoox4Ih-40" value="LOGIN" style="text;html=1;strokeColor=none;fillColor=none;align=center;verticalAlign=middle;whiteSpace=wrap;rounded=0;labelBackgroundColor=none;fontFamily=Helvetica;fontSize=11;" parent="1" vertex="1">
          <mxGeometry x="410" y="240" width="40" height="20" as="geometry" />
        </mxCell>
        <mxCell id="Tpt4DIQqjev-rOEuiUFe-13" style="edgeStyle=orthogonalEdgeStyle;rounded=0;orthogonalLoop=1;jettySize=auto;html=1;fontFamily=Helvetica;fontSize=8;" parent="1" source="OmryVCfLiUM44Uoox4Ih-42" target="OmryVCfLiUM44Uoox4Ih-253" edge="1">
          <mxGeometry relative="1" as="geometry" />
        </mxCell>
        <mxCell id="OmryVCfLiUM44Uoox4Ih-42" value="" style="rounded=0;whiteSpace=wrap;html=1;" parent="1" vertex="1">
          <mxGeometry x="600" y="160" width="220" height="290" as="geometry" />
        </mxCell>
        <mxCell id="OmryVCfLiUM44Uoox4Ih-76" style="edgeStyle=orthogonalEdgeStyle;rounded=0;orthogonalLoop=1;jettySize=auto;html=1;fontFamily=Helvetica;fontSize=4;entryX=0;entryY=0.5;entryDx=0;entryDy=0;" parent="1" source="OmryVCfLiUM44Uoox4Ih-43" target="Tpt4DIQqjev-rOEuiUFe-2" edge="1">
          <mxGeometry relative="1" as="geometry">
            <mxPoint x="310" y="640" as="targetPoint" />
          </mxGeometry>
        </mxCell>
        <mxCell id="OmryVCfLiUM44Uoox4Ih-43" value="" style="rounded=0;whiteSpace=wrap;html=1;" parent="1" vertex="1">
          <mxGeometry x="40" y="480" width="220" height="320" as="geometry" />
        </mxCell>
        <mxCell id="OmryVCfLiUM44Uoox4Ih-44" value="" style="group" parent="1" vertex="1" connectable="0">
          <mxGeometry x="60" y="520" width="140" height="140" as="geometry" />
        </mxCell>
        <mxCell id="OmryVCfLiUM44Uoox4Ih-45" value="" style="rounded=0;whiteSpace=wrap;html=1;fontSize=5;" parent="OmryVCfLiUM44Uoox4Ih-44" vertex="1">
          <mxGeometry x="-5" width="140" height="110.52631578947368" as="geometry" />
        </mxCell>
        <mxCell id="OmryVCfLiUM44Uoox4Ih-48" value="" style="rounded=0;whiteSpace=wrap;html=1;labelBackgroundColor=none;fontFamily=Helvetica;fontSize=11;align=left;" parent="1" vertex="1">
          <mxGeometry x="200" y="563" width="25" height="20" as="geometry" />
        </mxCell>
        <mxCell id="OmryVCfLiUM44Uoox4Ih-49" value="" style="rounded=0;whiteSpace=wrap;html=1;labelBackgroundColor=none;fontFamily=Helvetica;fontSize=11;align=left;" parent="1" vertex="1">
          <mxGeometry x="200" y="587" width="25" height="20" as="geometry" />
        </mxCell>
        <mxCell id="OmryVCfLiUM44Uoox4Ih-50" value="" style="rounded=0;whiteSpace=wrap;html=1;labelBackgroundColor=none;fontFamily=Helvetica;fontSize=11;align=left;" parent="1" vertex="1">
          <mxGeometry x="200" y="611" width="25" height="20" as="geometry" />
        </mxCell>
        <mxCell id="OmryVCfLiUM44Uoox4Ih-52" value="&lt;span style=&quot;font-size: 4px;&quot;&gt;$20/wk $3/da 4 day min&lt;/span&gt;" style="text;html=1;strokeColor=none;fillColor=none;align=left;verticalAlign=top;whiteSpace=wrap;rounded=0;labelBackgroundColor=none;fontFamily=Helvetica;fontSize=4;" parent="1" vertex="1">
          <mxGeometry x="203" y="530" width="52" height="19" as="geometry" />
        </mxCell>
        <mxCell id="OmryVCfLiUM44Uoox4Ih-55" value="MAP" style="rounded=0;whiteSpace=wrap;html=1;labelBackgroundColor=none;fontFamily=Helvetica;fontSize=4;align=center;fillColor=none;" parent="1" vertex="1">
          <mxGeometry x="55" y="640" width="55" height="40" as="geometry" />
        </mxCell>
        <mxCell id="OmryVCfLiUM44Uoox4Ih-57" value="&lt;h1&gt;Heading&lt;/h1&gt;&lt;p&gt;Lorem ipsum dolor sit amet, consectetur adipisicing elit, sed do eiusmod tempor incididunt ut labore et dolore magna aliqua.&lt;/p&gt;" style="text;html=1;strokeColor=none;fillColor=none;spacing=5;spacingTop=-20;whiteSpace=wrap;overflow=hidden;rounded=0;labelBackgroundColor=none;fontFamily=Helvetica;fontSize=4;align=left;" parent="1" vertex="1">
          <mxGeometry x="120" y="650" width="90" height="50" as="geometry" />
        </mxCell>
        <mxCell id="OmryVCfLiUM44Uoox4Ih-58" value="" style="triangle;whiteSpace=wrap;html=1;labelBackgroundColor=none;fillColor=none;fontFamily=Helvetica;fontSize=4;align=left;rotation=-180;" parent="1" vertex="1">
          <mxGeometry x="50" y="490" width="10" height="20" as="geometry" />
        </mxCell>
        <mxCell id="OmryVCfLiUM44Uoox4Ih-79" value="Verify Identity and Payment" style="text;html=1;strokeColor=none;fillColor=none;align=center;verticalAlign=middle;whiteSpace=wrap;rounded=0;labelBackgroundColor=none;fontFamily=Helvetica;fontSize=20;strokeWidth=20;" parent="1" vertex="1">
          <mxGeometry x="690" y="295" width="40" height="20" as="geometry" />
        </mxCell>
        <mxCell id="OmryVCfLiUM44Uoox4Ih-210" value="" style="group" parent="1" vertex="1" connectable="0">
          <mxGeometry x="60" y="690" width="70" height="46" as="geometry" />
        </mxCell>
        <mxCell id="OmryVCfLiUM44Uoox4Ih-178" value="" style="group" parent="OmryVCfLiUM44Uoox4Ih-210" vertex="1" connectable="0">
          <mxGeometry width="70" height="46" as="geometry" />
        </mxCell>
        <mxCell id="OmryVCfLiUM44Uoox4Ih-83" value="" style="rounded=0;whiteSpace=wrap;html=1;labelBackgroundColor=none;strokeWidth=1;fillColor=#ffffff;fontFamily=Helvetica;fontSize=20;align=left;" parent="OmryVCfLiUM44Uoox4Ih-178" vertex="1">
          <mxGeometry width="70" height="43" as="geometry" />
        </mxCell>
        <mxCell id="OmryVCfLiUM44Uoox4Ih-84" value="" style="whiteSpace=wrap;html=1;aspect=fixed;labelBackgroundColor=none;strokeWidth=1;fillColor=#ffffff;fontFamily=Helvetica;fontSize=20;align=left;" parent="OmryVCfLiUM44Uoox4Ih-178" vertex="1">
          <mxGeometry y="16" width="10" height="10" as="geometry" />
        </mxCell>
        <mxCell id="OmryVCfLiUM44Uoox4Ih-85" value="" style="whiteSpace=wrap;html=1;aspect=fixed;labelBackgroundColor=none;strokeWidth=1;fillColor=#ffffff;fontFamily=Helvetica;fontSize=20;align=left;" parent="OmryVCfLiUM44Uoox4Ih-178" vertex="1">
          <mxGeometry x="10" y="16" width="10" height="10" as="geometry" />
        </mxCell>
        <mxCell id="OmryVCfLiUM44Uoox4Ih-86" value="" style="whiteSpace=wrap;html=1;aspect=fixed;labelBackgroundColor=none;strokeWidth=1;fillColor=#ffffff;fontFamily=Helvetica;fontSize=20;align=left;" parent="OmryVCfLiUM44Uoox4Ih-178" vertex="1">
          <mxGeometry x="20" y="16" width="10" height="10" as="geometry" />
        </mxCell>
        <mxCell id="OmryVCfLiUM44Uoox4Ih-87" value="" style="whiteSpace=wrap;html=1;aspect=fixed;labelBackgroundColor=none;strokeWidth=1;fillColor=#ffffff;fontFamily=Helvetica;fontSize=20;align=left;" parent="OmryVCfLiUM44Uoox4Ih-178" vertex="1">
          <mxGeometry x="30" y="16" width="10" height="10" as="geometry" />
        </mxCell>
        <mxCell id="OmryVCfLiUM44Uoox4Ih-88" value="" style="whiteSpace=wrap;html=1;aspect=fixed;labelBackgroundColor=none;strokeWidth=1;fillColor=#ffffff;fontFamily=Helvetica;fontSize=20;align=left;" parent="OmryVCfLiUM44Uoox4Ih-178" vertex="1">
          <mxGeometry x="40" y="16" width="10" height="10" as="geometry" />
        </mxCell>
        <mxCell id="OmryVCfLiUM44Uoox4Ih-89" value="" style="whiteSpace=wrap;html=1;aspect=fixed;labelBackgroundColor=none;strokeWidth=1;fillColor=#ffffff;fontFamily=Helvetica;fontSize=20;align=left;" parent="OmryVCfLiUM44Uoox4Ih-178" vertex="1">
          <mxGeometry x="50" y="16" width="10" height="10" as="geometry" />
        </mxCell>
        <mxCell id="OmryVCfLiUM44Uoox4Ih-90" value="" style="whiteSpace=wrap;html=1;aspect=fixed;labelBackgroundColor=none;strokeWidth=1;fillColor=#ffffff;fontFamily=Helvetica;fontSize=20;align=left;" parent="OmryVCfLiUM44Uoox4Ih-178" vertex="1">
          <mxGeometry x="60" y="16" width="10" height="10" as="geometry" />
        </mxCell>
        <mxCell id="OmryVCfLiUM44Uoox4Ih-92" value="" style="whiteSpace=wrap;html=1;aspect=fixed;labelBackgroundColor=none;strokeWidth=1;fillColor=#ffffff;fontFamily=Helvetica;fontSize=20;align=left;" parent="OmryVCfLiUM44Uoox4Ih-178" vertex="1">
          <mxGeometry y="26" width="10" height="10" as="geometry" />
        </mxCell>
        <mxCell id="OmryVCfLiUM44Uoox4Ih-93" value="" style="whiteSpace=wrap;html=1;aspect=fixed;labelBackgroundColor=none;strokeWidth=1;fillColor=#ffffff;fontFamily=Helvetica;fontSize=20;align=left;" parent="OmryVCfLiUM44Uoox4Ih-178" vertex="1">
          <mxGeometry x="10" y="26" width="10" height="10" as="geometry" />
        </mxCell>
        <mxCell id="OmryVCfLiUM44Uoox4Ih-94" value="" style="whiteSpace=wrap;html=1;aspect=fixed;labelBackgroundColor=none;strokeWidth=1;fillColor=#ffffff;fontFamily=Helvetica;fontSize=20;align=left;" parent="OmryVCfLiUM44Uoox4Ih-178" vertex="1">
          <mxGeometry x="20" y="26" width="10" height="10" as="geometry" />
        </mxCell>
        <mxCell id="OmryVCfLiUM44Uoox4Ih-95" value="" style="whiteSpace=wrap;html=1;aspect=fixed;labelBackgroundColor=none;strokeWidth=1;fillColor=#ffffff;fontFamily=Helvetica;fontSize=20;align=left;" parent="OmryVCfLiUM44Uoox4Ih-178" vertex="1">
          <mxGeometry x="30" y="26" width="10" height="10" as="geometry" />
        </mxCell>
        <mxCell id="OmryVCfLiUM44Uoox4Ih-96" value="" style="whiteSpace=wrap;html=1;aspect=fixed;labelBackgroundColor=none;strokeWidth=1;fillColor=#ffffff;fontFamily=Helvetica;fontSize=20;align=left;" parent="OmryVCfLiUM44Uoox4Ih-178" vertex="1">
          <mxGeometry x="110" y="16" width="10" height="10" as="geometry" />
        </mxCell>
        <mxCell id="OmryVCfLiUM44Uoox4Ih-97" value="" style="whiteSpace=wrap;html=1;aspect=fixed;labelBackgroundColor=none;strokeWidth=1;fillColor=#ffffff;fontFamily=Helvetica;fontSize=20;align=left;" parent="OmryVCfLiUM44Uoox4Ih-178" vertex="1">
          <mxGeometry x="50" y="26" width="10" height="10" as="geometry" />
        </mxCell>
        <mxCell id="OmryVCfLiUM44Uoox4Ih-98" value="" style="whiteSpace=wrap;html=1;aspect=fixed;labelBackgroundColor=none;strokeWidth=1;fillColor=#ffffff;fontFamily=Helvetica;fontSize=20;align=left;" parent="OmryVCfLiUM44Uoox4Ih-178" vertex="1">
          <mxGeometry x="60" y="26" width="10" height="10" as="geometry" />
        </mxCell>
        <mxCell id="OmryVCfLiUM44Uoox4Ih-106" value="" style="whiteSpace=wrap;html=1;aspect=fixed;labelBackgroundColor=none;strokeWidth=1;fillColor=#ffffff;fontFamily=Helvetica;fontSize=20;align=left;" parent="OmryVCfLiUM44Uoox4Ih-178" vertex="1">
          <mxGeometry y="36" width="10" height="10" as="geometry" />
        </mxCell>
        <mxCell id="OmryVCfLiUM44Uoox4Ih-107" value="" style="whiteSpace=wrap;html=1;aspect=fixed;labelBackgroundColor=none;strokeWidth=1;fillColor=#ffffff;fontFamily=Helvetica;fontSize=20;align=left;" parent="OmryVCfLiUM44Uoox4Ih-178" vertex="1">
          <mxGeometry x="10" y="36" width="10" height="10" as="geometry" />
        </mxCell>
        <mxCell id="OmryVCfLiUM44Uoox4Ih-108" value="" style="whiteSpace=wrap;html=1;aspect=fixed;labelBackgroundColor=none;strokeWidth=1;fillColor=#ffffff;fontFamily=Helvetica;fontSize=20;align=left;" parent="OmryVCfLiUM44Uoox4Ih-178" vertex="1">
          <mxGeometry x="20" y="36" width="10" height="10" as="geometry" />
        </mxCell>
        <mxCell id="OmryVCfLiUM44Uoox4Ih-109" value="" style="whiteSpace=wrap;html=1;aspect=fixed;labelBackgroundColor=none;strokeWidth=1;fillColor=#ffffff;fontFamily=Helvetica;fontSize=20;align=left;" parent="OmryVCfLiUM44Uoox4Ih-178" vertex="1">
          <mxGeometry x="30" y="36" width="10" height="10" as="geometry" />
        </mxCell>
        <mxCell id="OmryVCfLiUM44Uoox4Ih-110" value="" style="whiteSpace=wrap;html=1;aspect=fixed;labelBackgroundColor=none;strokeWidth=1;fillColor=#ffffff;fontFamily=Helvetica;fontSize=20;align=left;" parent="OmryVCfLiUM44Uoox4Ih-178" vertex="1">
          <mxGeometry x="40" y="36" width="10" height="10" as="geometry" />
        </mxCell>
        <mxCell id="OmryVCfLiUM44Uoox4Ih-111" value="" style="whiteSpace=wrap;html=1;aspect=fixed;labelBackgroundColor=none;strokeWidth=1;fillColor=#ffffff;fontFamily=Helvetica;fontSize=20;align=left;" parent="OmryVCfLiUM44Uoox4Ih-178" vertex="1">
          <mxGeometry x="50" y="36" width="10" height="10" as="geometry" />
        </mxCell>
        <mxCell id="OmryVCfLiUM44Uoox4Ih-112" value="" style="whiteSpace=wrap;html=1;aspect=fixed;labelBackgroundColor=none;strokeWidth=1;fillColor=#ffffff;fontFamily=Helvetica;fontSize=20;align=left;" parent="OmryVCfLiUM44Uoox4Ih-178" vertex="1">
          <mxGeometry x="60" y="36" width="10" height="10" as="geometry" />
        </mxCell>
        <mxCell id="OmryVCfLiUM44Uoox4Ih-113" value="" style="whiteSpace=wrap;html=1;aspect=fixed;labelBackgroundColor=none;strokeWidth=1;fontFamily=Helvetica;fontSize=20;align=left;fillColor=#E6E6E6;" parent="OmryVCfLiUM44Uoox4Ih-178" vertex="1">
          <mxGeometry y="6" width="10" height="10" as="geometry" />
        </mxCell>
        <mxCell id="OmryVCfLiUM44Uoox4Ih-114" value="" style="whiteSpace=wrap;html=1;aspect=fixed;labelBackgroundColor=none;strokeWidth=1;fontFamily=Helvetica;fontSize=20;align=left;fillColor=#E6E6E6;" parent="OmryVCfLiUM44Uoox4Ih-178" vertex="1">
          <mxGeometry x="10" y="6" width="10" height="10" as="geometry" />
        </mxCell>
        <mxCell id="OmryVCfLiUM44Uoox4Ih-115" value="" style="whiteSpace=wrap;html=1;aspect=fixed;labelBackgroundColor=none;strokeWidth=1;fontFamily=Helvetica;fontSize=20;align=left;fillColor=#E6E6E6;" parent="OmryVCfLiUM44Uoox4Ih-178" vertex="1">
          <mxGeometry x="20" y="6" width="10" height="10" as="geometry" />
        </mxCell>
        <mxCell id="OmryVCfLiUM44Uoox4Ih-116" value="" style="whiteSpace=wrap;html=1;aspect=fixed;labelBackgroundColor=none;strokeWidth=1;fontFamily=Helvetica;fontSize=20;align=left;fillColor=#E6E6E6;" parent="OmryVCfLiUM44Uoox4Ih-178" vertex="1">
          <mxGeometry x="30" y="6" width="10" height="10" as="geometry" />
        </mxCell>
        <mxCell id="OmryVCfLiUM44Uoox4Ih-117" value="" style="whiteSpace=wrap;html=1;aspect=fixed;labelBackgroundColor=none;strokeWidth=1;fontFamily=Helvetica;fontSize=20;align=left;fillColor=#E6E6E6;" parent="OmryVCfLiUM44Uoox4Ih-178" vertex="1">
          <mxGeometry x="40" y="6" width="10" height="10" as="geometry" />
        </mxCell>
        <mxCell id="OmryVCfLiUM44Uoox4Ih-118" value="" style="whiteSpace=wrap;html=1;aspect=fixed;labelBackgroundColor=none;strokeWidth=1;fontFamily=Helvetica;fontSize=20;align=left;fillColor=#E6E6E6;" parent="OmryVCfLiUM44Uoox4Ih-178" vertex="1">
          <mxGeometry x="50" y="6" width="10" height="10" as="geometry" />
        </mxCell>
        <mxCell id="OmryVCfLiUM44Uoox4Ih-119" value="" style="whiteSpace=wrap;html=1;aspect=fixed;labelBackgroundColor=none;strokeWidth=1;fillColor=#ffffff;fontFamily=Helvetica;fontSize=20;align=left;" parent="OmryVCfLiUM44Uoox4Ih-178" vertex="1">
          <mxGeometry x="60" y="6" width="10" height="10" as="geometry" />
        </mxCell>
        <mxCell id="OmryVCfLiUM44Uoox4Ih-211" value="" style="group" parent="1" vertex="1" connectable="0">
          <mxGeometry x="140" y="690" width="70" height="46" as="geometry" />
        </mxCell>
        <mxCell id="OmryVCfLiUM44Uoox4Ih-212" value="" style="group" parent="OmryVCfLiUM44Uoox4Ih-211" vertex="1" connectable="0">
          <mxGeometry width="70" height="46" as="geometry" />
        </mxCell>
        <mxCell id="OmryVCfLiUM44Uoox4Ih-213" value="" style="rounded=0;whiteSpace=wrap;html=1;labelBackgroundColor=none;strokeWidth=1;fillColor=#ffffff;fontFamily=Helvetica;fontSize=20;align=left;" parent="OmryVCfLiUM44Uoox4Ih-212" vertex="1">
          <mxGeometry width="70" height="43" as="geometry" />
        </mxCell>
        <mxCell id="OmryVCfLiUM44Uoox4Ih-214" value="" style="whiteSpace=wrap;html=1;aspect=fixed;labelBackgroundColor=none;strokeWidth=1;fillColor=#ffffff;fontFamily=Helvetica;fontSize=20;align=left;" parent="OmryVCfLiUM44Uoox4Ih-212" vertex="1">
          <mxGeometry y="16" width="10" height="10" as="geometry" />
        </mxCell>
        <mxCell id="OmryVCfLiUM44Uoox4Ih-215" value="" style="whiteSpace=wrap;html=1;aspect=fixed;labelBackgroundColor=none;strokeWidth=1;fillColor=#ffffff;fontFamily=Helvetica;fontSize=20;align=left;" parent="OmryVCfLiUM44Uoox4Ih-212" vertex="1">
          <mxGeometry x="10" y="16" width="10" height="10" as="geometry" />
        </mxCell>
        <mxCell id="OmryVCfLiUM44Uoox4Ih-216" value="" style="whiteSpace=wrap;html=1;aspect=fixed;labelBackgroundColor=none;strokeWidth=1;fillColor=#ffffff;fontFamily=Helvetica;fontSize=20;align=left;" parent="OmryVCfLiUM44Uoox4Ih-212" vertex="1">
          <mxGeometry x="20" y="16" width="10" height="10" as="geometry" />
        </mxCell>
        <mxCell id="OmryVCfLiUM44Uoox4Ih-217" value="" style="whiteSpace=wrap;html=1;aspect=fixed;labelBackgroundColor=none;strokeWidth=1;fillColor=#ffffff;fontFamily=Helvetica;fontSize=20;align=left;" parent="OmryVCfLiUM44Uoox4Ih-212" vertex="1">
          <mxGeometry x="30" y="16" width="10" height="10" as="geometry" />
        </mxCell>
        <mxCell id="OmryVCfLiUM44Uoox4Ih-218" value="" style="whiteSpace=wrap;html=1;aspect=fixed;labelBackgroundColor=none;strokeWidth=1;fillColor=#ffffff;fontFamily=Helvetica;fontSize=20;align=left;" parent="OmryVCfLiUM44Uoox4Ih-212" vertex="1">
          <mxGeometry x="40" y="16" width="10" height="10" as="geometry" />
        </mxCell>
        <mxCell id="OmryVCfLiUM44Uoox4Ih-219" value="" style="whiteSpace=wrap;html=1;aspect=fixed;labelBackgroundColor=none;strokeWidth=1;fontFamily=Helvetica;fontSize=20;align=left;fillColor=#E6E6E6;" parent="OmryVCfLiUM44Uoox4Ih-212" vertex="1">
          <mxGeometry x="50" y="16" width="10" height="10" as="geometry" />
        </mxCell>
        <mxCell id="OmryVCfLiUM44Uoox4Ih-220" value="" style="whiteSpace=wrap;html=1;aspect=fixed;labelBackgroundColor=none;strokeWidth=1;fontFamily=Helvetica;fontSize=20;align=left;fillColor=#E6E6E6;" parent="OmryVCfLiUM44Uoox4Ih-212" vertex="1">
          <mxGeometry x="60" y="16" width="10" height="10" as="geometry" />
        </mxCell>
        <mxCell id="OmryVCfLiUM44Uoox4Ih-221" value="" style="whiteSpace=wrap;html=1;aspect=fixed;labelBackgroundColor=none;strokeWidth=1;fontFamily=Helvetica;fontSize=20;align=left;fillColor=#E6E6E6;" parent="OmryVCfLiUM44Uoox4Ih-212" vertex="1">
          <mxGeometry y="26" width="10" height="10" as="geometry" />
        </mxCell>
        <mxCell id="OmryVCfLiUM44Uoox4Ih-222" value="" style="whiteSpace=wrap;html=1;aspect=fixed;labelBackgroundColor=none;strokeWidth=1;fontFamily=Helvetica;fontSize=20;align=left;fillColor=#E6E6E6;" parent="OmryVCfLiUM44Uoox4Ih-212" vertex="1">
          <mxGeometry x="10" y="26" width="10" height="10" as="geometry" />
        </mxCell>
        <mxCell id="OmryVCfLiUM44Uoox4Ih-223" value="" style="whiteSpace=wrap;html=1;aspect=fixed;labelBackgroundColor=none;strokeWidth=1;fontFamily=Helvetica;fontSize=20;align=left;fillColor=#E6E6E6;" parent="OmryVCfLiUM44Uoox4Ih-212" vertex="1">
          <mxGeometry x="20" y="26" width="10" height="10" as="geometry" />
        </mxCell>
        <mxCell id="OmryVCfLiUM44Uoox4Ih-224" value="" style="whiteSpace=wrap;html=1;aspect=fixed;labelBackgroundColor=none;strokeWidth=1;fontFamily=Helvetica;fontSize=20;align=left;fillColor=#E6E6E6;" parent="OmryVCfLiUM44Uoox4Ih-212" vertex="1">
          <mxGeometry x="30" y="26" width="10" height="10" as="geometry" />
        </mxCell>
        <mxCell id="OmryVCfLiUM44Uoox4Ih-225" value="" style="whiteSpace=wrap;html=1;aspect=fixed;labelBackgroundColor=none;strokeWidth=1;fillColor=#ffffff;fontFamily=Helvetica;fontSize=20;align=left;" parent="OmryVCfLiUM44Uoox4Ih-212" vertex="1">
          <mxGeometry x="40" y="26" width="10" height="10" as="geometry" />
        </mxCell>
        <mxCell id="OmryVCfLiUM44Uoox4Ih-226" value="" style="whiteSpace=wrap;html=1;aspect=fixed;labelBackgroundColor=none;strokeWidth=1;fillColor=#ffffff;fontFamily=Helvetica;fontSize=20;align=left;" parent="OmryVCfLiUM44Uoox4Ih-212" vertex="1">
          <mxGeometry x="50" y="26" width="10" height="10" as="geometry" />
        </mxCell>
        <mxCell id="OmryVCfLiUM44Uoox4Ih-227" value="" style="whiteSpace=wrap;html=1;aspect=fixed;labelBackgroundColor=none;strokeWidth=1;fillColor=#ffffff;fontFamily=Helvetica;fontSize=20;align=left;" parent="OmryVCfLiUM44Uoox4Ih-212" vertex="1">
          <mxGeometry x="60" y="26" width="10" height="10" as="geometry" />
        </mxCell>
        <mxCell id="OmryVCfLiUM44Uoox4Ih-228" value="" style="whiteSpace=wrap;html=1;aspect=fixed;labelBackgroundColor=none;strokeWidth=1;fillColor=#ffffff;fontFamily=Helvetica;fontSize=20;align=left;" parent="OmryVCfLiUM44Uoox4Ih-212" vertex="1">
          <mxGeometry y="36" width="10" height="10" as="geometry" />
        </mxCell>
        <mxCell id="OmryVCfLiUM44Uoox4Ih-229" value="" style="whiteSpace=wrap;html=1;aspect=fixed;labelBackgroundColor=none;strokeWidth=1;fillColor=#ffffff;fontFamily=Helvetica;fontSize=20;align=left;" parent="OmryVCfLiUM44Uoox4Ih-212" vertex="1">
          <mxGeometry x="10" y="36" width="10" height="10" as="geometry" />
        </mxCell>
        <mxCell id="OmryVCfLiUM44Uoox4Ih-230" value="" style="whiteSpace=wrap;html=1;aspect=fixed;labelBackgroundColor=none;strokeWidth=1;fillColor=#ffffff;fontFamily=Helvetica;fontSize=20;align=left;" parent="OmryVCfLiUM44Uoox4Ih-212" vertex="1">
          <mxGeometry x="20" y="36" width="10" height="10" as="geometry" />
        </mxCell>
        <mxCell id="OmryVCfLiUM44Uoox4Ih-231" value="" style="whiteSpace=wrap;html=1;aspect=fixed;labelBackgroundColor=none;strokeWidth=1;fillColor=#ffffff;fontFamily=Helvetica;fontSize=20;align=left;" parent="OmryVCfLiUM44Uoox4Ih-212" vertex="1">
          <mxGeometry x="30" y="36" width="10" height="10" as="geometry" />
        </mxCell>
        <mxCell id="OmryVCfLiUM44Uoox4Ih-232" value="" style="whiteSpace=wrap;html=1;aspect=fixed;labelBackgroundColor=none;strokeWidth=1;fillColor=#ffffff;fontFamily=Helvetica;fontSize=20;align=left;" parent="OmryVCfLiUM44Uoox4Ih-212" vertex="1">
          <mxGeometry x="40" y="36" width="10" height="10" as="geometry" />
        </mxCell>
        <mxCell id="OmryVCfLiUM44Uoox4Ih-233" value="" style="whiteSpace=wrap;html=1;aspect=fixed;labelBackgroundColor=none;strokeWidth=1;fillColor=#ffffff;fontFamily=Helvetica;fontSize=20;align=left;" parent="OmryVCfLiUM44Uoox4Ih-212" vertex="1">
          <mxGeometry x="50" y="36" width="10" height="10" as="geometry" />
        </mxCell>
        <mxCell id="OmryVCfLiUM44Uoox4Ih-234" value="" style="whiteSpace=wrap;html=1;aspect=fixed;labelBackgroundColor=none;strokeWidth=1;fillColor=#ffffff;fontFamily=Helvetica;fontSize=20;align=left;" parent="OmryVCfLiUM44Uoox4Ih-212" vertex="1">
          <mxGeometry x="60" y="36" width="10" height="10" as="geometry" />
        </mxCell>
        <mxCell id="OmryVCfLiUM44Uoox4Ih-235" value="" style="whiteSpace=wrap;html=1;aspect=fixed;labelBackgroundColor=none;strokeWidth=1;fillColor=#ffffff;fontFamily=Helvetica;fontSize=20;align=left;" parent="OmryVCfLiUM44Uoox4Ih-212" vertex="1">
          <mxGeometry y="6" width="10" height="10" as="geometry" />
        </mxCell>
        <mxCell id="OmryVCfLiUM44Uoox4Ih-236" value="" style="whiteSpace=wrap;html=1;aspect=fixed;labelBackgroundColor=none;strokeWidth=1;fillColor=#ffffff;fontFamily=Helvetica;fontSize=20;align=left;" parent="OmryVCfLiUM44Uoox4Ih-212" vertex="1">
          <mxGeometry x="10" y="6" width="10" height="10" as="geometry" />
        </mxCell>
        <mxCell id="OmryVCfLiUM44Uoox4Ih-237" value="" style="whiteSpace=wrap;html=1;aspect=fixed;labelBackgroundColor=none;strokeWidth=1;fillColor=#ffffff;fontFamily=Helvetica;fontSize=20;align=left;" parent="OmryVCfLiUM44Uoox4Ih-212" vertex="1">
          <mxGeometry x="20" y="6" width="10" height="10" as="geometry" />
        </mxCell>
        <mxCell id="OmryVCfLiUM44Uoox4Ih-238" value="" style="whiteSpace=wrap;html=1;aspect=fixed;labelBackgroundColor=none;strokeWidth=1;fillColor=#ffffff;fontFamily=Helvetica;fontSize=20;align=left;" parent="OmryVCfLiUM44Uoox4Ih-212" vertex="1">
          <mxGeometry x="30" y="6" width="10" height="10" as="geometry" />
        </mxCell>
        <mxCell id="OmryVCfLiUM44Uoox4Ih-239" value="" style="whiteSpace=wrap;html=1;aspect=fixed;labelBackgroundColor=none;strokeWidth=1;fillColor=#ffffff;fontFamily=Helvetica;fontSize=20;align=left;" parent="OmryVCfLiUM44Uoox4Ih-212" vertex="1">
          <mxGeometry x="40" y="6" width="10" height="10" as="geometry" />
        </mxCell>
        <mxCell id="OmryVCfLiUM44Uoox4Ih-240" value="" style="whiteSpace=wrap;html=1;aspect=fixed;labelBackgroundColor=none;strokeWidth=1;fillColor=#ffffff;fontFamily=Helvetica;fontSize=20;align=left;" parent="OmryVCfLiUM44Uoox4Ih-212" vertex="1">
          <mxGeometry x="50" y="6" width="10" height="10" as="geometry" />
        </mxCell>
        <mxCell id="OmryVCfLiUM44Uoox4Ih-241" value="" style="whiteSpace=wrap;html=1;aspect=fixed;labelBackgroundColor=none;strokeWidth=1;fillColor=#ffffff;fontFamily=Helvetica;fontSize=20;align=left;" parent="OmryVCfLiUM44Uoox4Ih-212" vertex="1">
          <mxGeometry x="60" y="6" width="10" height="10" as="geometry" />
        </mxCell>
        <mxCell id="OmryVCfLiUM44Uoox4Ih-242" value="Schdule" style="rounded=1;whiteSpace=wrap;html=1;labelBackgroundColor=none;fontFamily=Helvetica;fontSize=8;align=center;fillColor=#99CCFF;" parent="1" vertex="1">
          <mxGeometry x="155" y="748" width="55" height="10" as="geometry" />
        </mxCell>
        <mxCell id="OmryVCfLiUM44Uoox4Ih-251" value="$25" style="text;html=1;strokeColor=none;fillColor=none;align=center;verticalAlign=middle;whiteSpace=wrap;rounded=0;labelBackgroundColor=none;fontFamily=Helvetica;fontSize=18;" parent="1" vertex="1">
          <mxGeometry x="105" y="772" width="40" height="20" as="geometry" />
        </mxCell>
        <mxCell id="OmryVCfLiUM44Uoox4Ih-252" value="$4x5days" style="text;html=1;strokeColor=none;fillColor=none;align=center;verticalAlign=middle;whiteSpace=wrap;rounded=0;labelBackgroundColor=none;fontFamily=Helvetica;fontSize=10;" parent="1" vertex="1">
          <mxGeometry x="100" y="743" width="40" height="20" as="geometry" />
        </mxCell>
        <mxCell id="OmryVCfLiUM44Uoox4Ih-278" style="edgeStyle=orthogonalEdgeStyle;rounded=0;orthogonalLoop=1;jettySize=auto;html=1;fontFamily=Helvetica;fontSize=8;" parent="1" source="OmryVCfLiUM44Uoox4Ih-253" target="OmryVCfLiUM44Uoox4Ih-277" edge="1">
          <mxGeometry relative="1" as="geometry" />
        </mxCell>
        <mxCell id="Tpt4DIQqjev-rOEuiUFe-14" value="SMS / Email Receipt" style="edgeLabel;html=1;align=center;verticalAlign=middle;resizable=0;points=[];fontSize=8;fontFamily=Helvetica;" parent="OmryVCfLiUM44Uoox4Ih-278" vertex="1" connectable="0">
          <mxGeometry x="0.0707" relative="1" as="geometry">
            <mxPoint as="offset" />
          </mxGeometry>
        </mxCell>
        <mxCell id="OmryVCfLiUM44Uoox4Ih-253" value="" style="rounded=0;whiteSpace=wrap;html=1;" parent="1" vertex="1">
          <mxGeometry x="600" y="480" width="220" height="290" as="geometry" />
        </mxCell>
        <mxCell id="OmryVCfLiUM44Uoox4Ih-266" value="" style="rounded=0;whiteSpace=wrap;html=1;fontSize=5;" parent="1" vertex="1">
          <mxGeometry x="620" y="500" width="50" height="44.21052631578947" as="geometry" />
        </mxCell>
        <mxCell id="OmryVCfLiUM44Uoox4Ih-267" value="APR 3-8" style="text;html=1;strokeColor=none;fillColor=none;align=left;verticalAlign=middle;whiteSpace=wrap;rounded=0;labelBackgroundColor=none;fontFamily=Helvetica;fontSize=12;" parent="1" vertex="1">
          <mxGeometry x="620" y="553" width="100" height="20" as="geometry" />
        </mxCell>
        <mxCell id="OmryVCfLiUM44Uoox4Ih-268" value="Pick Up" style="text;html=1;strokeColor=none;fillColor=none;align=left;verticalAlign=middle;whiteSpace=wrap;rounded=0;labelBackgroundColor=none;fontFamily=Helvetica;fontSize=7;" parent="1" vertex="1">
          <mxGeometry x="620" y="583" width="80" height="20" as="geometry" />
        </mxCell>
        <mxCell id="OmryVCfLiUM44Uoox4Ih-269" value="Dop Off" style="text;html=1;strokeColor=none;fillColor=none;align=left;verticalAlign=middle;whiteSpace=wrap;rounded=0;labelBackgroundColor=none;fontFamily=Helvetica;fontSize=7;" parent="1" vertex="1">
          <mxGeometry x="620" y="630" width="80" height="20" as="geometry" />
        </mxCell>
        <mxCell id="OmryVCfLiUM44Uoox4Ih-270" value="9-11AM @ 123 Main Street" style="text;html=1;strokeColor=none;fillColor=none;align=left;verticalAlign=middle;whiteSpace=wrap;rounded=0;labelBackgroundColor=none;fontFamily=Helvetica;fontSize=10;" parent="1" vertex="1">
          <mxGeometry x="620" y="597" width="140" height="20" as="geometry" />
        </mxCell>
        <mxCell id="OmryVCfLiUM44Uoox4Ih-271" value="9-11AM @ 123 Main Street" style="text;html=1;strokeColor=none;fillColor=none;align=left;verticalAlign=middle;whiteSpace=wrap;rounded=0;labelBackgroundColor=none;fontFamily=Helvetica;fontSize=10;" parent="1" vertex="1">
          <mxGeometry x="620" y="641" width="140" height="20" as="geometry" />
        </mxCell>
        <mxCell id="OmryVCfLiUM44Uoox4Ih-272" value="Buy Now" style="rounded=1;whiteSpace=wrap;html=1;labelBackgroundColor=none;fontFamily=Helvetica;fontSize=8;align=center;fillColor=#99CCFF;" parent="1" vertex="1">
          <mxGeometry x="155" y="763" width="55" height="7" as="geometry" />
        </mxCell>
        <mxCell id="OmryVCfLiUM44Uoox4Ih-273" value="Contact Lender" style="rounded=1;whiteSpace=wrap;html=1;labelBackgroundColor=none;fontFamily=Helvetica;fontSize=8;align=center;fillColor=#99CCFF;" parent="1" vertex="1">
          <mxGeometry x="690" y="686" width="70" height="24" as="geometry" />
        </mxCell>
        <mxCell id="Tpt4DIQqjev-rOEuiUFe-16" style="edgeStyle=orthogonalEdgeStyle;rounded=0;orthogonalLoop=1;jettySize=auto;html=1;fontFamily=Helvetica;fontSize=8;" parent="1" source="OmryVCfLiUM44Uoox4Ih-277" target="Tpt4DIQqjev-rOEuiUFe-15" edge="1">
          <mxGeometry relative="1" as="geometry" />
        </mxCell>
        <mxCell id="OmryVCfLiUM44Uoox4Ih-277" value="" style="outlineConnect=0;fontColor=#232F3E;gradientColor=none;fillColor=#232F3E;strokeColor=none;dashed=0;verticalLabelPosition=bottom;verticalAlign=top;align=center;html=1;fontSize=12;fontStyle=0;aspect=fixed;pointerEvents=1;shape=mxgraph.aws4.email_2;labelBackgroundColor=none;strokeWidth=2;" parent="1" vertex="1">
          <mxGeometry x="974.08" y="460" width="31.84" height="20" as="geometry" />
        </mxCell>
        <mxCell id="Tpt4DIQqjev-rOEuiUFe-5" style="edgeStyle=orthogonalEdgeStyle;rounded=0;orthogonalLoop=1;jettySize=auto;html=1;entryX=0.185;entryY=0.996;entryDx=0;entryDy=0;entryPerimeter=0;fontFamily=Helvetica;fontSize=18;" parent="1" source="Tpt4DIQqjev-rOEuiUFe-2" target="OmryVCfLiUM44Uoox4Ih-1" edge="1">
          <mxGeometry relative="1" as="geometry" />
        </mxCell>
        <mxCell id="Tpt4DIQqjev-rOEuiUFe-6" value="No" style="edgeLabel;html=1;align=center;verticalAlign=middle;resizable=0;points=[];fontSize=8;fontFamily=Helvetica;" parent="Tpt4DIQqjev-rOEuiUFe-5" vertex="1" connectable="0">
          <mxGeometry x="-0.3713" y="-2" relative="1" as="geometry">
            <mxPoint as="offset" />
          </mxGeometry>
        </mxCell>
        <mxCell id="Tpt4DIQqjev-rOEuiUFe-8" value="Yes" style="edgeStyle=orthogonalEdgeStyle;rounded=0;orthogonalLoop=1;jettySize=auto;html=1;entryX=0;entryY=0.5;entryDx=0;entryDy=0;fontFamily=Helvetica;fontSize=8;" parent="1" source="Tpt4DIQqjev-rOEuiUFe-2" target="Tpt4DIQqjev-rOEuiUFe-7" edge="1">
          <mxGeometry relative="1" as="geometry" />
        </mxCell>
        <mxCell id="Tpt4DIQqjev-rOEuiUFe-2" value="Logged In" style="rhombus;whiteSpace=wrap;html=1;labelBackgroundColor=none;fillColor=#ffffff;fontFamily=Helvetica;fontSize=10;align=center;" parent="1" vertex="1">
          <mxGeometry x="320" y="600" width="80" height="80" as="geometry" />
        </mxCell>
        <mxCell id="Tpt4DIQqjev-rOEuiUFe-4" value="" style="group" parent="1" vertex="1" connectable="0">
          <mxGeometry x="60" y="743" width="30" height="49" as="geometry" />
        </mxCell>
        <mxCell id="Tpt4DIQqjev-rOEuiUFe-3" value="" style="group" parent="Tpt4DIQqjev-rOEuiUFe-4" vertex="1" connectable="0">
          <mxGeometry width="30" height="49" as="geometry" />
        </mxCell>
        <mxCell id="OmryVCfLiUM44Uoox4Ih-243" value="" style="rounded=0;whiteSpace=wrap;html=1;labelBackgroundColor=none;strokeWidth=1;fontFamily=Helvetica;fontSize=20;align=left;fillColor=#FFFFFF;" parent="Tpt4DIQqjev-rOEuiUFe-3" vertex="1">
          <mxGeometry width="30" height="48.51" as="geometry" />
        </mxCell>
        <mxCell id="OmryVCfLiUM44Uoox4Ih-244" value="" style="rounded=0;whiteSpace=wrap;html=1;labelBackgroundColor=none;strokeWidth=1;fillColor=#FFFFFF;fontFamily=Helvetica;fontSize=20;align=left;" parent="Tpt4DIQqjev-rOEuiUFe-3" vertex="1">
          <mxGeometry width="30" height="9.8" as="geometry" />
        </mxCell>
        <mxCell id="OmryVCfLiUM44Uoox4Ih-245" value="" style="rounded=0;whiteSpace=wrap;html=1;labelBackgroundColor=none;strokeWidth=1;fillColor=#FFFFFF;fontFamily=Helvetica;fontSize=20;align=left;" parent="Tpt4DIQqjev-rOEuiUFe-3" vertex="1">
          <mxGeometry y="9.8" width="30" height="9.8" as="geometry" />
        </mxCell>
        <mxCell id="OmryVCfLiUM44Uoox4Ih-246" value="" style="rounded=0;whiteSpace=wrap;html=1;labelBackgroundColor=none;strokeWidth=1;fillColor=#FFFFFF;fontFamily=Helvetica;fontSize=20;align=left;" parent="Tpt4DIQqjev-rOEuiUFe-3" vertex="1">
          <mxGeometry y="19.6" width="30" height="9.8" as="geometry" />
        </mxCell>
        <mxCell id="OmryVCfLiUM44Uoox4Ih-247" value="" style="rounded=0;whiteSpace=wrap;html=1;labelBackgroundColor=none;strokeWidth=1;fillColor=#FFFFFF;fontFamily=Helvetica;fontSize=20;align=left;" parent="Tpt4DIQqjev-rOEuiUFe-3" vertex="1">
          <mxGeometry y="29.4" width="30" height="9.8" as="geometry" />
        </mxCell>
        <mxCell id="OmryVCfLiUM44Uoox4Ih-248" value="" style="rounded=0;whiteSpace=wrap;html=1;labelBackgroundColor=none;strokeWidth=1;fillColor=#FFFFFF;fontFamily=Helvetica;fontSize=20;align=left;" parent="Tpt4DIQqjev-rOEuiUFe-3" vertex="1">
          <mxGeometry y="39.2" width="30" height="9.8" as="geometry" />
        </mxCell>
        <mxCell id="Tpt4DIQqjev-rOEuiUFe-10" value="NO" style="edgeStyle=orthogonalEdgeStyle;rounded=0;orthogonalLoop=1;jettySize=auto;html=1;entryX=0.004;entryY=0.689;entryDx=0;entryDy=0;entryPerimeter=0;fontFamily=Helvetica;fontSize=8;" parent="1" source="Tpt4DIQqjev-rOEuiUFe-7" target="OmryVCfLiUM44Uoox4Ih-42" edge="1">
          <mxGeometry relative="1" as="geometry" />
        </mxCell>
        <mxCell id="Tpt4DIQqjev-rOEuiUFe-11" style="edgeStyle=orthogonalEdgeStyle;rounded=0;orthogonalLoop=1;jettySize=auto;html=1;entryX=0;entryY=0.75;entryDx=0;entryDy=0;fontFamily=Helvetica;fontSize=8;" parent="1" source="Tpt4DIQqjev-rOEuiUFe-7" target="OmryVCfLiUM44Uoox4Ih-253" edge="1">
          <mxGeometry relative="1" as="geometry">
            <Array as="points">
              <mxPoint x="473" y="698" />
              <mxPoint x="557" y="698" />
            </Array>
          </mxGeometry>
        </mxCell>
        <mxCell id="Tpt4DIQqjev-rOEuiUFe-12" value="Yes" style="edgeLabel;html=1;align=center;verticalAlign=middle;resizable=0;points=[];fontSize=8;fontFamily=Helvetica;" parent="Tpt4DIQqjev-rOEuiUFe-11" vertex="1" connectable="0">
          <mxGeometry x="0.2121" relative="1" as="geometry">
            <mxPoint as="offset" />
          </mxGeometry>
        </mxCell>
        <mxCell id="Tpt4DIQqjev-rOEuiUFe-7" value="Has Account" style="rhombus;whiteSpace=wrap;html=1;labelBackgroundColor=none;fillColor=#ffffff;fontFamily=Helvetica;fontSize=10;align=center;" parent="1" vertex="1">
          <mxGeometry x="433" y="600" width="80" height="80" as="geometry" />
        </mxCell>
        <mxCell id="Tpt4DIQqjev-rOEuiUFe-18" value="Reminder" style="edgeStyle=orthogonalEdgeStyle;rounded=0;orthogonalLoop=1;jettySize=auto;html=1;fontFamily=Helvetica;fontSize=8;" parent="1" source="Tpt4DIQqjev-rOEuiUFe-15" target="Tpt4DIQqjev-rOEuiUFe-17" edge="1">
          <mxGeometry relative="1" as="geometry" />
        </mxCell>
        <mxCell id="Tpt4DIQqjev-rOEuiUFe-15" value="" style="pointerEvents=1;shadow=0;dashed=0;html=1;strokeColor=none;fillColor=#505050;labelPosition=center;verticalLabelPosition=bottom;verticalAlign=top;outlineConnect=0;align=center;shape=mxgraph.office.concepts.clock;labelBackgroundColor=none;fontFamily=Helvetica;fontSize=8;" parent="1" vertex="1">
          <mxGeometry x="1050" y="455" width="25" height="25" as="geometry" />
        </mxCell>
        <mxCell id="Tpt4DIQqjev-rOEuiUFe-17" value="" style="outlineConnect=0;fontColor=#232F3E;gradientColor=none;fillColor=#232F3E;strokeColor=none;dashed=0;verticalLabelPosition=bottom;verticalAlign=top;align=center;html=1;fontSize=12;fontStyle=0;aspect=fixed;pointerEvents=1;shape=mxgraph.aws4.email_2;labelBackgroundColor=none;strokeWidth=2;" parent="1" vertex="1">
          <mxGeometry x="1130" y="410" width="31.84" height="20" as="geometry" />
        </mxCell>
        <mxCell id="Tpt4DIQqjev-rOEuiUFe-20" value="Platform Charge $5" style="text;html=1;strokeColor=none;fillColor=none;align=center;verticalAlign=middle;whiteSpace=wrap;rounded=0;labelBackgroundColor=none;fontFamily=Helvetica;fontSize=8;" parent="1" vertex="1">
          <mxGeometry x="95" y="757.5" width="40" height="20" as="geometry" />
        </mxCell>
      </root>
    </mxGraphModel>
  </diagram>
  <diagram id="nA0YAGO__MTd-85NMM8F" name="List">
    <mxGraphModel dx="868" dy="733" grid="1" gridSize="10" guides="1" tooltips="1" connect="1" arrows="1" fold="1" page="1" pageScale="1" pageWidth="1400" pageHeight="850" math="0" shadow="0">
      <root>
        <mxCell id="9DNuE8OTtdYEcTD2hJGC-0" />
        <mxCell id="9DNuE8OTtdYEcTD2hJGC-1" parent="9DNuE8OTtdYEcTD2hJGC-0" />
        <mxCell id="jwZwRtwFp60XTxuanfma-87" style="edgeStyle=orthogonalEdgeStyle;rounded=0;orthogonalLoop=1;jettySize=auto;html=1;entryX=0.5;entryY=0;entryDx=0;entryDy=0;fontFamily=Helvetica;fontSize=8;" parent="9DNuE8OTtdYEcTD2hJGC-1" source="Jv4Nh9q3fhYdODWQChw9-0" target="CI4-Gfm36h1mDA6LbJpq-0" edge="1">
          <mxGeometry relative="1" as="geometry" />
        </mxCell>
        <mxCell id="Jv4Nh9q3fhYdODWQChw9-0" value="" style="rounded=0;whiteSpace=wrap;html=1;" parent="9DNuE8OTtdYEcTD2hJGC-1" vertex="1">
          <mxGeometry x="40" y="160" width="220" height="290" as="geometry" />
        </mxCell>
        <mxCell id="Jv4Nh9q3fhYdODWQChw9-1" value="HOME PAGE" style="text;html=1;strokeColor=none;fillColor=none;align=center;verticalAlign=middle;whiteSpace=wrap;rounded=0;fontSize=5;" parent="9DNuE8OTtdYEcTD2hJGC-1" vertex="1">
          <mxGeometry x="40" y="140" width="40" height="20" as="geometry" />
        </mxCell>
        <mxCell id="Jv4Nh9q3fhYdODWQChw9-2" value="" style="group" parent="9DNuE8OTtdYEcTD2hJGC-1" vertex="1" connectable="0">
          <mxGeometry x="90" y="230" width="50" height="76" as="geometry" />
        </mxCell>
        <mxCell id="Jv4Nh9q3fhYdODWQChw9-3" value="" style="rounded=0;whiteSpace=wrap;html=1;fontSize=5;" parent="Jv4Nh9q3fhYdODWQChw9-2" vertex="1">
          <mxGeometry width="50" height="60" as="geometry" />
        </mxCell>
        <mxCell id="Jv4Nh9q3fhYdODWQChw9-4" value="$20/wk $3/da 4 day min" style="text;html=1;strokeColor=none;fillColor=none;align=left;verticalAlign=middle;whiteSpace=wrap;rounded=0;fontSize=4;fontFamily=Helvetica;" parent="Jv4Nh9q3fhYdODWQChw9-2" vertex="1">
          <mxGeometry y="60" width="50" height="10" as="geometry" />
        </mxCell>
        <mxCell id="Jv4Nh9q3fhYdODWQChw9-5" value="West Chester, PA" style="text;html=1;strokeColor=none;fillColor=none;align=left;verticalAlign=middle;whiteSpace=wrap;rounded=0;fontSize=3;fontFamily=Helvetica;" parent="Jv4Nh9q3fhYdODWQChw9-2" vertex="1">
          <mxGeometry y="66" width="50" height="10" as="geometry" />
        </mxCell>
        <mxCell id="Jv4Nh9q3fhYdODWQChw9-6" value="" style="group" parent="9DNuE8OTtdYEcTD2hJGC-1" vertex="1" connectable="0">
          <mxGeometry x="145" y="230" width="50" height="76" as="geometry" />
        </mxCell>
        <mxCell id="Jv4Nh9q3fhYdODWQChw9-7" value="" style="rounded=0;whiteSpace=wrap;html=1;fontSize=5;" parent="Jv4Nh9q3fhYdODWQChw9-6" vertex="1">
          <mxGeometry width="50" height="60" as="geometry" />
        </mxCell>
        <mxCell id="Jv4Nh9q3fhYdODWQChw9-8" value="$20/wk $3/da 4 day min" style="text;html=1;strokeColor=none;fillColor=none;align=left;verticalAlign=middle;whiteSpace=wrap;rounded=0;fontSize=4;fontFamily=Helvetica;" parent="Jv4Nh9q3fhYdODWQChw9-6" vertex="1">
          <mxGeometry y="60" width="50" height="10" as="geometry" />
        </mxCell>
        <mxCell id="Jv4Nh9q3fhYdODWQChw9-9" value="West Chester, PA" style="text;html=1;strokeColor=none;fillColor=none;align=left;verticalAlign=middle;whiteSpace=wrap;rounded=0;fontSize=3;fontFamily=Helvetica;" parent="Jv4Nh9q3fhYdODWQChw9-6" vertex="1">
          <mxGeometry y="66" width="50" height="10" as="geometry" />
        </mxCell>
        <mxCell id="Jv4Nh9q3fhYdODWQChw9-10" value="" style="group" parent="9DNuE8OTtdYEcTD2hJGC-1" vertex="1" connectable="0">
          <mxGeometry x="200" y="230" width="50" height="76" as="geometry" />
        </mxCell>
        <mxCell id="Jv4Nh9q3fhYdODWQChw9-11" value="" style="rounded=0;whiteSpace=wrap;html=1;fontSize=5;" parent="Jv4Nh9q3fhYdODWQChw9-10" vertex="1">
          <mxGeometry width="50" height="60" as="geometry" />
        </mxCell>
        <mxCell id="Jv4Nh9q3fhYdODWQChw9-12" value="$20/wk $3/da 4 day min" style="text;html=1;strokeColor=none;fillColor=none;align=left;verticalAlign=middle;whiteSpace=wrap;rounded=0;fontSize=4;fontFamily=Helvetica;" parent="Jv4Nh9q3fhYdODWQChw9-10" vertex="1">
          <mxGeometry y="60" width="50" height="10" as="geometry" />
        </mxCell>
        <mxCell id="Jv4Nh9q3fhYdODWQChw9-13" value="West Chester, PA" style="text;html=1;strokeColor=none;fillColor=none;align=left;verticalAlign=middle;whiteSpace=wrap;rounded=0;fontSize=3;fontFamily=Helvetica;" parent="Jv4Nh9q3fhYdODWQChw9-10" vertex="1">
          <mxGeometry y="66" width="50" height="10" as="geometry" />
        </mxCell>
        <mxCell id="Jv4Nh9q3fhYdODWQChw9-14" value="" style="group" parent="9DNuE8OTtdYEcTD2hJGC-1" vertex="1" connectable="0">
          <mxGeometry x="90" y="310" width="50" height="76" as="geometry" />
        </mxCell>
        <mxCell id="Jv4Nh9q3fhYdODWQChw9-15" value="" style="rounded=0;whiteSpace=wrap;html=1;fontSize=5;" parent="Jv4Nh9q3fhYdODWQChw9-14" vertex="1">
          <mxGeometry width="50" height="60" as="geometry" />
        </mxCell>
        <mxCell id="Jv4Nh9q3fhYdODWQChw9-16" value="$20/wk $3/da 4 day min" style="text;html=1;strokeColor=none;fillColor=none;align=left;verticalAlign=middle;whiteSpace=wrap;rounded=0;fontSize=4;fontFamily=Helvetica;" parent="Jv4Nh9q3fhYdODWQChw9-14" vertex="1">
          <mxGeometry y="60" width="50" height="10" as="geometry" />
        </mxCell>
        <mxCell id="Jv4Nh9q3fhYdODWQChw9-17" value="West Chester, PA" style="text;html=1;strokeColor=none;fillColor=none;align=left;verticalAlign=middle;whiteSpace=wrap;rounded=0;fontSize=3;fontFamily=Helvetica;" parent="Jv4Nh9q3fhYdODWQChw9-14" vertex="1">
          <mxGeometry y="66" width="50" height="10" as="geometry" />
        </mxCell>
        <mxCell id="Jv4Nh9q3fhYdODWQChw9-18" value="" style="group" parent="9DNuE8OTtdYEcTD2hJGC-1" vertex="1" connectable="0">
          <mxGeometry x="145" y="310" width="50" height="76" as="geometry" />
        </mxCell>
        <mxCell id="Jv4Nh9q3fhYdODWQChw9-19" value="" style="rounded=0;whiteSpace=wrap;html=1;fontSize=5;" parent="Jv4Nh9q3fhYdODWQChw9-18" vertex="1">
          <mxGeometry width="50" height="60" as="geometry" />
        </mxCell>
        <mxCell id="Jv4Nh9q3fhYdODWQChw9-20" value="$20/wk $3/da 4 day min" style="text;html=1;strokeColor=none;fillColor=none;align=left;verticalAlign=middle;whiteSpace=wrap;rounded=0;fontSize=4;fontFamily=Helvetica;" parent="Jv4Nh9q3fhYdODWQChw9-18" vertex="1">
          <mxGeometry y="60" width="50" height="10" as="geometry" />
        </mxCell>
        <mxCell id="Jv4Nh9q3fhYdODWQChw9-21" value="West Chester, PA" style="text;html=1;strokeColor=none;fillColor=none;align=left;verticalAlign=middle;whiteSpace=wrap;rounded=0;fontSize=3;fontFamily=Helvetica;" parent="Jv4Nh9q3fhYdODWQChw9-18" vertex="1">
          <mxGeometry y="66" width="50" height="10" as="geometry" />
        </mxCell>
        <mxCell id="Jv4Nh9q3fhYdODWQChw9-22" value="" style="group" parent="9DNuE8OTtdYEcTD2hJGC-1" vertex="1" connectable="0">
          <mxGeometry x="200" y="310" width="50" height="76" as="geometry" />
        </mxCell>
        <mxCell id="Jv4Nh9q3fhYdODWQChw9-23" value="" style="rounded=0;whiteSpace=wrap;html=1;fontSize=5;" parent="Jv4Nh9q3fhYdODWQChw9-22" vertex="1">
          <mxGeometry width="50" height="60" as="geometry" />
        </mxCell>
        <mxCell id="Jv4Nh9q3fhYdODWQChw9-24" value="$20/wk $3/da 4 day min" style="text;html=1;strokeColor=none;fillColor=none;align=left;verticalAlign=middle;whiteSpace=wrap;rounded=0;fontSize=4;fontFamily=Helvetica;" parent="Jv4Nh9q3fhYdODWQChw9-22" vertex="1">
          <mxGeometry y="60" width="50" height="10" as="geometry" />
        </mxCell>
        <mxCell id="Jv4Nh9q3fhYdODWQChw9-25" value="West Chester, PA" style="text;html=1;strokeColor=none;fillColor=none;align=left;verticalAlign=middle;whiteSpace=wrap;rounded=0;fontSize=3;fontFamily=Helvetica;" parent="Jv4Nh9q3fhYdODWQChw9-22" vertex="1">
          <mxGeometry y="66" width="50" height="10" as="geometry" />
        </mxCell>
        <mxCell id="Jv4Nh9q3fhYdODWQChw9-26" value="" style="rounded=0;whiteSpace=wrap;html=1;fontFamily=Helvetica;fontSize=3;align=left;" parent="9DNuE8OTtdYEcTD2hJGC-1" vertex="1">
          <mxGeometry x="40" y="230" width="40" height="200" as="geometry" />
        </mxCell>
        <mxCell id="Jv4Nh9q3fhYdODWQChw9-27" value="" style="rounded=0;whiteSpace=wrap;html=1;fontFamily=Helvetica;fontSize=3;align=left;" parent="9DNuE8OTtdYEcTD2hJGC-1" vertex="1">
          <mxGeometry x="90" y="210" width="160" height="10" as="geometry" />
        </mxCell>
        <mxCell id="Jv4Nh9q3fhYdODWQChw9-28" value="" style="rounded=0;whiteSpace=wrap;html=1;fontFamily=Helvetica;fontSize=3;align=left;" parent="9DNuE8OTtdYEcTD2hJGC-1" vertex="1">
          <mxGeometry x="40" y="160" width="220" height="10" as="geometry" />
        </mxCell>
        <mxCell id="jwZwRtwFp60XTxuanfma-85" style="edgeStyle=orthogonalEdgeStyle;rounded=0;orthogonalLoop=1;jettySize=auto;html=1;entryX=0;entryY=0.5;entryDx=0;entryDy=0;fontFamily=Helvetica;fontSize=8;" parent="9DNuE8OTtdYEcTD2hJGC-1" source="CI4-Gfm36h1mDA6LbJpq-0" target="mDO8kAqLtmtnlul8Derl-25" edge="1">
          <mxGeometry relative="1" as="geometry" />
        </mxCell>
        <mxCell id="CI4-Gfm36h1mDA6LbJpq-0" value="" style="rounded=0;whiteSpace=wrap;html=1;" parent="9DNuE8OTtdYEcTD2hJGC-1" vertex="1">
          <mxGeometry x="40" y="480" width="220" height="320" as="geometry" />
        </mxCell>
        <mxCell id="CI4-Gfm36h1mDA6LbJpq-1" value="" style="group" parent="9DNuE8OTtdYEcTD2hJGC-1" vertex="1" connectable="0">
          <mxGeometry x="140" y="560" width="82.5" height="96" as="geometry" />
        </mxCell>
        <mxCell id="CI4-Gfm36h1mDA6LbJpq-2" value="" style="rounded=0;whiteSpace=wrap;html=1;fontSize=5;" parent="CI4-Gfm36h1mDA6LbJpq-1" vertex="1">
          <mxGeometry x="-2.946428571428571" width="82.5" height="75.78947368421052" as="geometry" />
        </mxCell>
        <mxCell id="CI4-Gfm36h1mDA6LbJpq-7" value="MAP" style="rounded=0;whiteSpace=wrap;html=1;labelBackgroundColor=none;fontFamily=Helvetica;fontSize=4;align=center;fillColor=none;" parent="9DNuE8OTtdYEcTD2hJGC-1" vertex="1">
          <mxGeometry x="138.5" y="644" width="55" height="40" as="geometry" />
        </mxCell>
        <mxCell id="CI4-Gfm36h1mDA6LbJpq-8" value="&lt;h1&gt;Heading&lt;/h1&gt;&lt;p&gt;Lorem ipsum dolor sit amet, consectetur adipisicing elit, sed do eiusmod tempor incididunt ut labore et dolore magna aliqua.&lt;/p&gt;" style="text;html=1;strokeColor=none;fillColor=none;spacing=5;spacingTop=-20;whiteSpace=wrap;overflow=hidden;rounded=0;labelBackgroundColor=none;fontFamily=Helvetica;fontSize=4;align=left;" parent="9DNuE8OTtdYEcTD2hJGC-1" vertex="1">
          <mxGeometry x="198.5" y="648" width="44.5" height="50" as="geometry" />
        </mxCell>
        <mxCell id="CI4-Gfm36h1mDA6LbJpq-9" value="" style="triangle;whiteSpace=wrap;html=1;labelBackgroundColor=none;fillColor=none;fontFamily=Helvetica;fontSize=4;align=left;rotation=-180;" parent="9DNuE8OTtdYEcTD2hJGC-1" vertex="1">
          <mxGeometry x="50" y="490" width="10" height="20" as="geometry" />
        </mxCell>
        <mxCell id="CI4-Gfm36h1mDA6LbJpq-85" value="" style="rounded=0;whiteSpace=wrap;html=1;fontFamily=Helvetica;fontSize=3;align=left;" parent="9DNuE8OTtdYEcTD2hJGC-1" vertex="1">
          <mxGeometry x="40" y="560" width="80" height="200" as="geometry" />
        </mxCell>
        <mxCell id="CI4-Gfm36h1mDA6LbJpq-86" value="" style="group" parent="9DNuE8OTtdYEcTD2hJGC-1" vertex="1" connectable="0">
          <mxGeometry x="225" y="585" width="15" height="50" as="geometry" />
        </mxCell>
        <mxCell id="CI4-Gfm36h1mDA6LbJpq-3" value="" style="rounded=0;whiteSpace=wrap;html=1;labelBackgroundColor=none;fontFamily=Helvetica;fontSize=11;align=left;" parent="CI4-Gfm36h1mDA6LbJpq-86" vertex="1">
          <mxGeometry width="15" height="14.925373134328359" as="geometry" />
        </mxCell>
        <mxCell id="CI4-Gfm36h1mDA6LbJpq-4" value="" style="rounded=0;whiteSpace=wrap;html=1;labelBackgroundColor=none;fontFamily=Helvetica;fontSize=11;align=left;" parent="CI4-Gfm36h1mDA6LbJpq-86" vertex="1">
          <mxGeometry y="17.910447761194032" width="15" height="14.925373134328359" as="geometry" />
        </mxCell>
        <mxCell id="CI4-Gfm36h1mDA6LbJpq-5" value="" style="rounded=0;whiteSpace=wrap;html=1;labelBackgroundColor=none;fontFamily=Helvetica;fontSize=11;align=left;" parent="CI4-Gfm36h1mDA6LbJpq-86" vertex="1">
          <mxGeometry y="35.820895522388064" width="15" height="14.179104477611942" as="geometry" />
        </mxCell>
        <mxCell id="CI4-Gfm36h1mDA6LbJpq-88" value="" style="triangle;whiteSpace=wrap;html=1;labelBackgroundColor=none;strokeWidth=1;fillColor=#FFFFFF;fontFamily=Helvetica;fontSize=8;align=center;" parent="9DNuE8OTtdYEcTD2hJGC-1" vertex="1">
          <mxGeometry x="100" y="739.33" width="10" height="13.34" as="geometry" />
        </mxCell>
        <mxCell id="CI4-Gfm36h1mDA6LbJpq-89" value="" style="rounded=0;whiteSpace=wrap;html=1;labelBackgroundColor=none;strokeWidth=1;fillColor=#FFFFFF;fontFamily=Helvetica;fontSize=8;align=center;" parent="9DNuE8OTtdYEcTD2hJGC-1" vertex="1">
          <mxGeometry x="55" y="580" width="50" height="20" as="geometry" />
        </mxCell>
        <mxCell id="CI4-Gfm36h1mDA6LbJpq-92" value="" style="rounded=0;whiteSpace=wrap;html=1;labelBackgroundColor=none;strokeWidth=1;fillColor=#FFFFFF;fontFamily=Helvetica;fontSize=8;align=center;" parent="9DNuE8OTtdYEcTD2hJGC-1" vertex="1">
          <mxGeometry x="55" y="610" width="50" height="20" as="geometry" />
        </mxCell>
        <mxCell id="CI4-Gfm36h1mDA6LbJpq-93" value="" style="rounded=0;whiteSpace=wrap;html=1;labelBackgroundColor=none;strokeWidth=1;fillColor=#FFFFFF;fontFamily=Helvetica;fontSize=8;align=center;" parent="9DNuE8OTtdYEcTD2hJGC-1" vertex="1">
          <mxGeometry x="55" y="636" width="50" height="20" as="geometry" />
        </mxCell>
        <mxCell id="mDO8kAqLtmtnlul8Derl-0" style="edgeStyle=orthogonalEdgeStyle;rounded=0;orthogonalLoop=1;jettySize=auto;html=1;entryX=0.5;entryY=0;entryDx=0;entryDy=0;fontFamily=Helvetica;fontSize=8;exitX=0.696;exitY=0.998;exitDx=0;exitDy=0;exitPerimeter=0;" parent="9DNuE8OTtdYEcTD2hJGC-1" source="mDO8kAqLtmtnlul8Derl-1" target="mDO8kAqLtmtnlul8Derl-29" edge="1">
          <mxGeometry relative="1" as="geometry" />
        </mxCell>
        <mxCell id="mDO8kAqLtmtnlul8Derl-1" value="" style="rounded=0;whiteSpace=wrap;html=1;" parent="9DNuE8OTtdYEcTD2hJGC-1" vertex="1">
          <mxGeometry x="320" y="160" width="220" height="290" as="geometry" />
        </mxCell>
        <mxCell id="mDO8kAqLtmtnlul8Derl-2" value="" style="rounded=0;whiteSpace=wrap;html=1;fontSize=5;" parent="9DNuE8OTtdYEcTD2hJGC-1" vertex="1">
          <mxGeometry x="370" y="230" width="120" height="140" as="geometry" />
        </mxCell>
        <mxCell id="mDO8kAqLtmtnlul8Derl-3" value="" style="rounded=0;whiteSpace=wrap;html=1;fontSize=5;" parent="9DNuE8OTtdYEcTD2hJGC-1" vertex="1">
          <mxGeometry x="380" y="240" width="100" height="20" as="geometry" />
        </mxCell>
        <mxCell id="mDO8kAqLtmtnlul8Derl-4" value="" style="rounded=0;whiteSpace=wrap;html=1;fontFamily=Helvetica;fontSize=3;align=left;" parent="9DNuE8OTtdYEcTD2hJGC-1" vertex="1">
          <mxGeometry x="380" y="310" width="100" height="20" as="geometry" />
        </mxCell>
        <mxCell id="mDO8kAqLtmtnlul8Derl-5" value="" style="rounded=0;whiteSpace=wrap;html=1;fontFamily=Helvetica;fontSize=3;align=left;" parent="9DNuE8OTtdYEcTD2hJGC-1" vertex="1">
          <mxGeometry x="380" y="338" width="100" height="20" as="geometry" />
        </mxCell>
        <mxCell id="mDO8kAqLtmtnlul8Derl-6" value="" style="rounded=0;whiteSpace=wrap;html=1;labelBackgroundColor=none;fontFamily=Helvetica;fontSize=3;align=left;fillColor=#E0E0E0;" parent="9DNuE8OTtdYEcTD2hJGC-1" vertex="1">
          <mxGeometry x="380" y="310" width="20" height="20" as="geometry" />
        </mxCell>
        <mxCell id="mDO8kAqLtmtnlul8Derl-7" value="" style="rounded=0;whiteSpace=wrap;html=1;labelBackgroundColor=none;fontFamily=Helvetica;fontSize=3;align=left;fillColor=#E0E0E0;" parent="9DNuE8OTtdYEcTD2hJGC-1" vertex="1">
          <mxGeometry x="380" y="338" width="20" height="20" as="geometry" />
        </mxCell>
        <mxCell id="mDO8kAqLtmtnlul8Derl-8" value="&lt;font style=&quot;font-size: 11px&quot;&gt;F&lt;/font&gt;" style="text;html=1;strokeColor=none;fillColor=none;align=center;verticalAlign=middle;whiteSpace=wrap;rounded=0;fontFamily=Helvetica;fontSize=3;labelBackgroundColor=none;" parent="9DNuE8OTtdYEcTD2hJGC-1" vertex="1">
          <mxGeometry x="380" y="310" width="20" height="20" as="geometry" />
        </mxCell>
        <mxCell id="mDO8kAqLtmtnlul8Derl-9" value="&lt;font style=&quot;font-size: 11px&quot;&gt;G&lt;/font&gt;" style="text;html=1;strokeColor=none;fillColor=none;align=center;verticalAlign=middle;whiteSpace=wrap;rounded=0;fontFamily=Helvetica;fontSize=3;" parent="9DNuE8OTtdYEcTD2hJGC-1" vertex="1">
          <mxGeometry x="380" y="338" width="20" height="20" as="geometry" />
        </mxCell>
        <mxCell id="mDO8kAqLtmtnlul8Derl-10" value="LOGIN" style="text;html=1;strokeColor=none;fillColor=none;align=center;verticalAlign=middle;whiteSpace=wrap;rounded=0;labelBackgroundColor=none;fontFamily=Helvetica;fontSize=11;" parent="9DNuE8OTtdYEcTD2hJGC-1" vertex="1">
          <mxGeometry x="410" y="240" width="40" height="20" as="geometry" />
        </mxCell>
        <mxCell id="mDO8kAqLtmtnlul8Derl-11" style="edgeStyle=orthogonalEdgeStyle;rounded=0;orthogonalLoop=1;jettySize=auto;html=1;fontFamily=Helvetica;fontSize=8;" parent="9DNuE8OTtdYEcTD2hJGC-1" source="mDO8kAqLtmtnlul8Derl-12" edge="1">
          <mxGeometry relative="1" as="geometry">
            <mxPoint x="710" y="480" as="targetPoint" />
          </mxGeometry>
        </mxCell>
        <mxCell id="mDO8kAqLtmtnlul8Derl-12" value="" style="rounded=0;whiteSpace=wrap;html=1;" parent="9DNuE8OTtdYEcTD2hJGC-1" vertex="1">
          <mxGeometry x="600" y="160" width="220" height="290" as="geometry" />
        </mxCell>
        <mxCell id="mDO8kAqLtmtnlul8Derl-13" value="Verify Identity and Payment" style="text;html=1;strokeColor=none;fillColor=none;align=center;verticalAlign=middle;whiteSpace=wrap;rounded=0;labelBackgroundColor=none;fontFamily=Helvetica;fontSize=20;strokeWidth=20;" parent="9DNuE8OTtdYEcTD2hJGC-1" vertex="1">
          <mxGeometry x="690" y="295" width="40" height="20" as="geometry" />
        </mxCell>
        <mxCell id="mDO8kAqLtmtnlul8Derl-22" style="edgeStyle=orthogonalEdgeStyle;rounded=0;orthogonalLoop=1;jettySize=auto;html=1;entryX=0.185;entryY=0.996;entryDx=0;entryDy=0;entryPerimeter=0;fontFamily=Helvetica;fontSize=18;" parent="9DNuE8OTtdYEcTD2hJGC-1" source="mDO8kAqLtmtnlul8Derl-25" target="mDO8kAqLtmtnlul8Derl-1" edge="1">
          <mxGeometry relative="1" as="geometry" />
        </mxCell>
        <mxCell id="mDO8kAqLtmtnlul8Derl-23" value="No" style="edgeLabel;html=1;align=center;verticalAlign=middle;resizable=0;points=[];fontSize=8;fontFamily=Helvetica;" parent="mDO8kAqLtmtnlul8Derl-22" vertex="1" connectable="0">
          <mxGeometry x="-0.3713" y="-2" relative="1" as="geometry">
            <mxPoint as="offset" />
          </mxGeometry>
        </mxCell>
        <mxCell id="mDO8kAqLtmtnlul8Derl-24" value="Yes" style="edgeStyle=orthogonalEdgeStyle;rounded=0;orthogonalLoop=1;jettySize=auto;html=1;entryX=0;entryY=0.5;entryDx=0;entryDy=0;fontFamily=Helvetica;fontSize=8;" parent="9DNuE8OTtdYEcTD2hJGC-1" source="mDO8kAqLtmtnlul8Derl-25" target="mDO8kAqLtmtnlul8Derl-29" edge="1">
          <mxGeometry relative="1" as="geometry" />
        </mxCell>
        <mxCell id="mDO8kAqLtmtnlul8Derl-25" value="Logged In" style="rhombus;whiteSpace=wrap;html=1;labelBackgroundColor=none;fillColor=#ffffff;fontFamily=Helvetica;fontSize=12;align=center;" parent="9DNuE8OTtdYEcTD2hJGC-1" vertex="1">
          <mxGeometry x="320" y="600" width="80" height="80" as="geometry" />
        </mxCell>
        <mxCell id="mDO8kAqLtmtnlul8Derl-26" value="NO" style="edgeStyle=orthogonalEdgeStyle;rounded=0;orthogonalLoop=1;jettySize=auto;html=1;entryX=0.004;entryY=0.689;entryDx=0;entryDy=0;entryPerimeter=0;fontFamily=Helvetica;fontSize=8;" parent="9DNuE8OTtdYEcTD2hJGC-1" source="mDO8kAqLtmtnlul8Derl-29" target="mDO8kAqLtmtnlul8Derl-12" edge="1">
          <mxGeometry relative="1" as="geometry" />
        </mxCell>
        <mxCell id="mDO8kAqLtmtnlul8Derl-27" style="edgeStyle=orthogonalEdgeStyle;rounded=0;orthogonalLoop=1;jettySize=auto;html=1;entryX=0;entryY=0.75;entryDx=0;entryDy=0;fontFamily=Helvetica;fontSize=8;" parent="9DNuE8OTtdYEcTD2hJGC-1" source="mDO8kAqLtmtnlul8Derl-29" edge="1">
          <mxGeometry relative="1" as="geometry">
            <Array as="points">
              <mxPoint x="473" y="698" />
              <mxPoint x="557" y="698" />
            </Array>
            <mxPoint x="600" y="697.5" as="targetPoint" />
          </mxGeometry>
        </mxCell>
        <mxCell id="mDO8kAqLtmtnlul8Derl-28" value="Yes" style="edgeLabel;html=1;align=center;verticalAlign=middle;resizable=0;points=[];fontSize=8;fontFamily=Helvetica;" parent="mDO8kAqLtmtnlul8Derl-27" vertex="1" connectable="0">
          <mxGeometry x="0.2121" relative="1" as="geometry">
            <mxPoint as="offset" />
          </mxGeometry>
        </mxCell>
        <mxCell id="mDO8kAqLtmtnlul8Derl-29" value="Has Account" style="rhombus;whiteSpace=wrap;html=1;labelBackgroundColor=none;fillColor=#ffffff;fontFamily=Helvetica;fontSize=12;align=center;" parent="9DNuE8OTtdYEcTD2hJGC-1" vertex="1">
          <mxGeometry x="433" y="600" width="80" height="80" as="geometry" />
        </mxCell>
        <mxCell id="jwZwRtwFp60XTxuanfma-0" value="" style="rounded=0;whiteSpace=wrap;html=1;" parent="9DNuE8OTtdYEcTD2hJGC-1" vertex="1">
          <mxGeometry x="600" y="480" width="220" height="320" as="geometry" />
        </mxCell>
        <mxCell id="jwZwRtwFp60XTxuanfma-1" value="" style="group" parent="9DNuE8OTtdYEcTD2hJGC-1" vertex="1" connectable="0">
          <mxGeometry x="620" y="520" width="140" height="140" as="geometry" />
        </mxCell>
        <mxCell id="jwZwRtwFp60XTxuanfma-2" value="" style="rounded=0;whiteSpace=wrap;html=1;fontSize=5;" parent="jwZwRtwFp60XTxuanfma-1" vertex="1">
          <mxGeometry x="-5" width="140" height="110.52631578947368" as="geometry" />
        </mxCell>
        <mxCell id="jwZwRtwFp60XTxuanfma-3" value="" style="rounded=0;whiteSpace=wrap;html=1;labelBackgroundColor=none;fontFamily=Helvetica;fontSize=11;align=left;" parent="9DNuE8OTtdYEcTD2hJGC-1" vertex="1">
          <mxGeometry x="760" y="563" width="25" height="20" as="geometry" />
        </mxCell>
        <mxCell id="jwZwRtwFp60XTxuanfma-4" value="" style="rounded=0;whiteSpace=wrap;html=1;labelBackgroundColor=none;fontFamily=Helvetica;fontSize=11;align=left;" parent="9DNuE8OTtdYEcTD2hJGC-1" vertex="1">
          <mxGeometry x="760" y="587" width="25" height="20" as="geometry" />
        </mxCell>
        <mxCell id="jwZwRtwFp60XTxuanfma-5" value="" style="rounded=0;whiteSpace=wrap;html=1;labelBackgroundColor=none;fontFamily=Helvetica;fontSize=11;align=left;" parent="9DNuE8OTtdYEcTD2hJGC-1" vertex="1">
          <mxGeometry x="760" y="611" width="25" height="20" as="geometry" />
        </mxCell>
        <mxCell id="jwZwRtwFp60XTxuanfma-6" value="&lt;span style=&quot;font-size: 4px;&quot;&gt;$20/wk $3/da 4 day min&lt;/span&gt;" style="text;html=1;strokeColor=none;fillColor=none;align=left;verticalAlign=top;whiteSpace=wrap;rounded=0;labelBackgroundColor=none;fontFamily=Helvetica;fontSize=4;" parent="9DNuE8OTtdYEcTD2hJGC-1" vertex="1">
          <mxGeometry x="763" y="530" width="52" height="19" as="geometry" />
        </mxCell>
        <mxCell id="jwZwRtwFp60XTxuanfma-7" value="MAP" style="rounded=0;whiteSpace=wrap;html=1;labelBackgroundColor=none;fontFamily=Helvetica;fontSize=4;align=center;fillColor=none;" parent="9DNuE8OTtdYEcTD2hJGC-1" vertex="1">
          <mxGeometry x="615" y="640" width="55" height="40" as="geometry" />
        </mxCell>
        <mxCell id="jwZwRtwFp60XTxuanfma-8" value="&lt;h1&gt;Heading&lt;/h1&gt;&lt;p&gt;Lorem ipsum dolor sit amet, consectetur adipisicing elit, sed do eiusmod tempor incididunt ut labore et dolore magna aliqua.&lt;/p&gt;" style="text;html=1;strokeColor=none;fillColor=none;spacing=5;spacingTop=-20;whiteSpace=wrap;overflow=hidden;rounded=0;labelBackgroundColor=none;fontFamily=Helvetica;fontSize=4;align=left;" parent="9DNuE8OTtdYEcTD2hJGC-1" vertex="1">
          <mxGeometry x="680" y="650" width="90" height="50" as="geometry" />
        </mxCell>
        <mxCell id="jwZwRtwFp60XTxuanfma-9" value="" style="triangle;whiteSpace=wrap;html=1;labelBackgroundColor=none;fillColor=none;fontFamily=Helvetica;fontSize=4;align=left;rotation=-180;" parent="9DNuE8OTtdYEcTD2hJGC-1" vertex="1">
          <mxGeometry x="610" y="490" width="10" height="20" as="geometry" />
        </mxCell>
        <mxCell id="jwZwRtwFp60XTxuanfma-10" value="" style="group" parent="9DNuE8OTtdYEcTD2hJGC-1" vertex="1" connectable="0">
          <mxGeometry x="620" y="690" width="70" height="46" as="geometry" />
        </mxCell>
        <mxCell id="jwZwRtwFp60XTxuanfma-11" value="" style="group" parent="jwZwRtwFp60XTxuanfma-10" vertex="1" connectable="0">
          <mxGeometry width="70" height="46" as="geometry" />
        </mxCell>
        <mxCell id="jwZwRtwFp60XTxuanfma-12" value="" style="rounded=0;whiteSpace=wrap;html=1;labelBackgroundColor=none;strokeWidth=1;fillColor=#ffffff;fontFamily=Helvetica;fontSize=20;align=left;" parent="jwZwRtwFp60XTxuanfma-11" vertex="1">
          <mxGeometry width="70" height="43" as="geometry" />
        </mxCell>
        <mxCell id="jwZwRtwFp60XTxuanfma-13" value="" style="whiteSpace=wrap;html=1;aspect=fixed;labelBackgroundColor=none;strokeWidth=1;fillColor=#ffffff;fontFamily=Helvetica;fontSize=20;align=left;" parent="jwZwRtwFp60XTxuanfma-11" vertex="1">
          <mxGeometry y="16" width="10" height="10" as="geometry" />
        </mxCell>
        <mxCell id="jwZwRtwFp60XTxuanfma-14" value="" style="whiteSpace=wrap;html=1;aspect=fixed;labelBackgroundColor=none;strokeWidth=1;fillColor=#ffffff;fontFamily=Helvetica;fontSize=20;align=left;" parent="jwZwRtwFp60XTxuanfma-11" vertex="1">
          <mxGeometry x="10" y="16" width="10" height="10" as="geometry" />
        </mxCell>
        <mxCell id="jwZwRtwFp60XTxuanfma-15" value="" style="whiteSpace=wrap;html=1;aspect=fixed;labelBackgroundColor=none;strokeWidth=1;fillColor=#ffffff;fontFamily=Helvetica;fontSize=20;align=left;" parent="jwZwRtwFp60XTxuanfma-11" vertex="1">
          <mxGeometry x="20" y="16" width="10" height="10" as="geometry" />
        </mxCell>
        <mxCell id="jwZwRtwFp60XTxuanfma-16" value="" style="whiteSpace=wrap;html=1;aspect=fixed;labelBackgroundColor=none;strokeWidth=1;fillColor=#ffffff;fontFamily=Helvetica;fontSize=20;align=left;" parent="jwZwRtwFp60XTxuanfma-11" vertex="1">
          <mxGeometry x="30" y="16" width="10" height="10" as="geometry" />
        </mxCell>
        <mxCell id="jwZwRtwFp60XTxuanfma-17" value="" style="whiteSpace=wrap;html=1;aspect=fixed;labelBackgroundColor=none;strokeWidth=1;fillColor=#ffffff;fontFamily=Helvetica;fontSize=20;align=left;" parent="jwZwRtwFp60XTxuanfma-11" vertex="1">
          <mxGeometry x="40" y="16" width="10" height="10" as="geometry" />
        </mxCell>
        <mxCell id="jwZwRtwFp60XTxuanfma-18" value="" style="whiteSpace=wrap;html=1;aspect=fixed;labelBackgroundColor=none;strokeWidth=1;fillColor=#ffffff;fontFamily=Helvetica;fontSize=20;align=left;" parent="jwZwRtwFp60XTxuanfma-11" vertex="1">
          <mxGeometry x="50" y="16" width="10" height="10" as="geometry" />
        </mxCell>
        <mxCell id="jwZwRtwFp60XTxuanfma-19" value="" style="whiteSpace=wrap;html=1;aspect=fixed;labelBackgroundColor=none;strokeWidth=1;fillColor=#ffffff;fontFamily=Helvetica;fontSize=20;align=left;" parent="jwZwRtwFp60XTxuanfma-11" vertex="1">
          <mxGeometry x="60" y="16" width="10" height="10" as="geometry" />
        </mxCell>
        <mxCell id="jwZwRtwFp60XTxuanfma-20" value="" style="whiteSpace=wrap;html=1;aspect=fixed;labelBackgroundColor=none;strokeWidth=1;fillColor=#ffffff;fontFamily=Helvetica;fontSize=20;align=left;" parent="jwZwRtwFp60XTxuanfma-11" vertex="1">
          <mxGeometry y="26" width="10" height="10" as="geometry" />
        </mxCell>
        <mxCell id="jwZwRtwFp60XTxuanfma-21" value="" style="whiteSpace=wrap;html=1;aspect=fixed;labelBackgroundColor=none;strokeWidth=1;fillColor=#ffffff;fontFamily=Helvetica;fontSize=20;align=left;" parent="jwZwRtwFp60XTxuanfma-11" vertex="1">
          <mxGeometry x="10" y="26" width="10" height="10" as="geometry" />
        </mxCell>
        <mxCell id="jwZwRtwFp60XTxuanfma-22" value="" style="whiteSpace=wrap;html=1;aspect=fixed;labelBackgroundColor=none;strokeWidth=1;fillColor=#ffffff;fontFamily=Helvetica;fontSize=20;align=left;" parent="jwZwRtwFp60XTxuanfma-11" vertex="1">
          <mxGeometry x="20" y="26" width="10" height="10" as="geometry" />
        </mxCell>
        <mxCell id="jwZwRtwFp60XTxuanfma-23" value="" style="whiteSpace=wrap;html=1;aspect=fixed;labelBackgroundColor=none;strokeWidth=1;fillColor=#ffffff;fontFamily=Helvetica;fontSize=20;align=left;" parent="jwZwRtwFp60XTxuanfma-11" vertex="1">
          <mxGeometry x="30" y="26" width="10" height="10" as="geometry" />
        </mxCell>
        <mxCell id="jwZwRtwFp60XTxuanfma-24" value="" style="whiteSpace=wrap;html=1;aspect=fixed;labelBackgroundColor=none;strokeWidth=1;fillColor=#ffffff;fontFamily=Helvetica;fontSize=20;align=left;" parent="jwZwRtwFp60XTxuanfma-11" vertex="1">
          <mxGeometry x="110" y="16" width="10" height="10" as="geometry" />
        </mxCell>
        <mxCell id="jwZwRtwFp60XTxuanfma-25" value="" style="whiteSpace=wrap;html=1;aspect=fixed;labelBackgroundColor=none;strokeWidth=1;fillColor=#ffffff;fontFamily=Helvetica;fontSize=20;align=left;" parent="jwZwRtwFp60XTxuanfma-11" vertex="1">
          <mxGeometry x="50" y="26" width="10" height="10" as="geometry" />
        </mxCell>
        <mxCell id="jwZwRtwFp60XTxuanfma-26" value="" style="whiteSpace=wrap;html=1;aspect=fixed;labelBackgroundColor=none;strokeWidth=1;fillColor=#ffffff;fontFamily=Helvetica;fontSize=20;align=left;" parent="jwZwRtwFp60XTxuanfma-11" vertex="1">
          <mxGeometry x="60" y="26" width="10" height="10" as="geometry" />
        </mxCell>
        <mxCell id="jwZwRtwFp60XTxuanfma-27" value="" style="whiteSpace=wrap;html=1;aspect=fixed;labelBackgroundColor=none;strokeWidth=1;fillColor=#ffffff;fontFamily=Helvetica;fontSize=20;align=left;" parent="jwZwRtwFp60XTxuanfma-11" vertex="1">
          <mxGeometry y="36" width="10" height="10" as="geometry" />
        </mxCell>
        <mxCell id="jwZwRtwFp60XTxuanfma-28" value="" style="whiteSpace=wrap;html=1;aspect=fixed;labelBackgroundColor=none;strokeWidth=1;fillColor=#ffffff;fontFamily=Helvetica;fontSize=20;align=left;" parent="jwZwRtwFp60XTxuanfma-11" vertex="1">
          <mxGeometry x="10" y="36" width="10" height="10" as="geometry" />
        </mxCell>
        <mxCell id="jwZwRtwFp60XTxuanfma-29" value="" style="whiteSpace=wrap;html=1;aspect=fixed;labelBackgroundColor=none;strokeWidth=1;fillColor=#ffffff;fontFamily=Helvetica;fontSize=20;align=left;" parent="jwZwRtwFp60XTxuanfma-11" vertex="1">
          <mxGeometry x="20" y="36" width="10" height="10" as="geometry" />
        </mxCell>
        <mxCell id="jwZwRtwFp60XTxuanfma-30" value="" style="whiteSpace=wrap;html=1;aspect=fixed;labelBackgroundColor=none;strokeWidth=1;fillColor=#ffffff;fontFamily=Helvetica;fontSize=20;align=left;" parent="jwZwRtwFp60XTxuanfma-11" vertex="1">
          <mxGeometry x="30" y="36" width="10" height="10" as="geometry" />
        </mxCell>
        <mxCell id="jwZwRtwFp60XTxuanfma-31" value="" style="whiteSpace=wrap;html=1;aspect=fixed;labelBackgroundColor=none;strokeWidth=1;fillColor=#ffffff;fontFamily=Helvetica;fontSize=20;align=left;" parent="jwZwRtwFp60XTxuanfma-11" vertex="1">
          <mxGeometry x="40" y="36" width="10" height="10" as="geometry" />
        </mxCell>
        <mxCell id="jwZwRtwFp60XTxuanfma-32" value="" style="whiteSpace=wrap;html=1;aspect=fixed;labelBackgroundColor=none;strokeWidth=1;fillColor=#ffffff;fontFamily=Helvetica;fontSize=20;align=left;" parent="jwZwRtwFp60XTxuanfma-11" vertex="1">
          <mxGeometry x="50" y="36" width="10" height="10" as="geometry" />
        </mxCell>
        <mxCell id="jwZwRtwFp60XTxuanfma-33" value="" style="whiteSpace=wrap;html=1;aspect=fixed;labelBackgroundColor=none;strokeWidth=1;fillColor=#ffffff;fontFamily=Helvetica;fontSize=20;align=left;" parent="jwZwRtwFp60XTxuanfma-11" vertex="1">
          <mxGeometry x="60" y="36" width="10" height="10" as="geometry" />
        </mxCell>
        <mxCell id="jwZwRtwFp60XTxuanfma-34" value="" style="whiteSpace=wrap;html=1;aspect=fixed;labelBackgroundColor=none;strokeWidth=1;fontFamily=Helvetica;fontSize=20;align=left;fillColor=#E6E6E6;" parent="jwZwRtwFp60XTxuanfma-11" vertex="1">
          <mxGeometry y="6" width="10" height="10" as="geometry" />
        </mxCell>
        <mxCell id="jwZwRtwFp60XTxuanfma-35" value="" style="whiteSpace=wrap;html=1;aspect=fixed;labelBackgroundColor=none;strokeWidth=1;fontFamily=Helvetica;fontSize=20;align=left;fillColor=#E6E6E6;" parent="jwZwRtwFp60XTxuanfma-11" vertex="1">
          <mxGeometry x="10" y="6" width="10" height="10" as="geometry" />
        </mxCell>
        <mxCell id="jwZwRtwFp60XTxuanfma-36" value="" style="whiteSpace=wrap;html=1;aspect=fixed;labelBackgroundColor=none;strokeWidth=1;fontFamily=Helvetica;fontSize=20;align=left;fillColor=#E6E6E6;" parent="jwZwRtwFp60XTxuanfma-11" vertex="1">
          <mxGeometry x="20" y="6" width="10" height="10" as="geometry" />
        </mxCell>
        <mxCell id="jwZwRtwFp60XTxuanfma-37" value="" style="whiteSpace=wrap;html=1;aspect=fixed;labelBackgroundColor=none;strokeWidth=1;fontFamily=Helvetica;fontSize=20;align=left;fillColor=#E6E6E6;" parent="jwZwRtwFp60XTxuanfma-11" vertex="1">
          <mxGeometry x="30" y="6" width="10" height="10" as="geometry" />
        </mxCell>
        <mxCell id="jwZwRtwFp60XTxuanfma-38" value="" style="whiteSpace=wrap;html=1;aspect=fixed;labelBackgroundColor=none;strokeWidth=1;fontFamily=Helvetica;fontSize=20;align=left;fillColor=#E6E6E6;" parent="jwZwRtwFp60XTxuanfma-11" vertex="1">
          <mxGeometry x="40" y="6" width="10" height="10" as="geometry" />
        </mxCell>
        <mxCell id="jwZwRtwFp60XTxuanfma-39" value="" style="whiteSpace=wrap;html=1;aspect=fixed;labelBackgroundColor=none;strokeWidth=1;fontFamily=Helvetica;fontSize=20;align=left;fillColor=#E6E6E6;" parent="jwZwRtwFp60XTxuanfma-11" vertex="1">
          <mxGeometry x="50" y="6" width="10" height="10" as="geometry" />
        </mxCell>
        <mxCell id="jwZwRtwFp60XTxuanfma-40" value="" style="whiteSpace=wrap;html=1;aspect=fixed;labelBackgroundColor=none;strokeWidth=1;fillColor=#ffffff;fontFamily=Helvetica;fontSize=20;align=left;" parent="jwZwRtwFp60XTxuanfma-11" vertex="1">
          <mxGeometry x="60" y="6" width="10" height="10" as="geometry" />
        </mxCell>
        <mxCell id="jwZwRtwFp60XTxuanfma-41" value="" style="group" parent="9DNuE8OTtdYEcTD2hJGC-1" vertex="1" connectable="0">
          <mxGeometry x="700" y="690" width="70" height="46" as="geometry" />
        </mxCell>
        <mxCell id="jwZwRtwFp60XTxuanfma-42" value="" style="group" parent="jwZwRtwFp60XTxuanfma-41" vertex="1" connectable="0">
          <mxGeometry width="70" height="46" as="geometry" />
        </mxCell>
        <mxCell id="jwZwRtwFp60XTxuanfma-43" value="" style="rounded=0;whiteSpace=wrap;html=1;labelBackgroundColor=none;strokeWidth=1;fillColor=#ffffff;fontFamily=Helvetica;fontSize=20;align=left;" parent="jwZwRtwFp60XTxuanfma-42" vertex="1">
          <mxGeometry width="70" height="43" as="geometry" />
        </mxCell>
        <mxCell id="jwZwRtwFp60XTxuanfma-44" value="" style="whiteSpace=wrap;html=1;aspect=fixed;labelBackgroundColor=none;strokeWidth=1;fillColor=#ffffff;fontFamily=Helvetica;fontSize=20;align=left;" parent="jwZwRtwFp60XTxuanfma-42" vertex="1">
          <mxGeometry y="16" width="10" height="10" as="geometry" />
        </mxCell>
        <mxCell id="jwZwRtwFp60XTxuanfma-45" value="" style="whiteSpace=wrap;html=1;aspect=fixed;labelBackgroundColor=none;strokeWidth=1;fillColor=#ffffff;fontFamily=Helvetica;fontSize=20;align=left;" parent="jwZwRtwFp60XTxuanfma-42" vertex="1">
          <mxGeometry x="10" y="16" width="10" height="10" as="geometry" />
        </mxCell>
        <mxCell id="jwZwRtwFp60XTxuanfma-46" value="" style="whiteSpace=wrap;html=1;aspect=fixed;labelBackgroundColor=none;strokeWidth=1;fillColor=#ffffff;fontFamily=Helvetica;fontSize=20;align=left;" parent="jwZwRtwFp60XTxuanfma-42" vertex="1">
          <mxGeometry x="20" y="16" width="10" height="10" as="geometry" />
        </mxCell>
        <mxCell id="jwZwRtwFp60XTxuanfma-47" value="" style="whiteSpace=wrap;html=1;aspect=fixed;labelBackgroundColor=none;strokeWidth=1;fillColor=#ffffff;fontFamily=Helvetica;fontSize=20;align=left;" parent="jwZwRtwFp60XTxuanfma-42" vertex="1">
          <mxGeometry x="30" y="16" width="10" height="10" as="geometry" />
        </mxCell>
        <mxCell id="jwZwRtwFp60XTxuanfma-48" value="" style="whiteSpace=wrap;html=1;aspect=fixed;labelBackgroundColor=none;strokeWidth=1;fillColor=#ffffff;fontFamily=Helvetica;fontSize=20;align=left;" parent="jwZwRtwFp60XTxuanfma-42" vertex="1">
          <mxGeometry x="40" y="16" width="10" height="10" as="geometry" />
        </mxCell>
        <mxCell id="jwZwRtwFp60XTxuanfma-49" value="" style="whiteSpace=wrap;html=1;aspect=fixed;labelBackgroundColor=none;strokeWidth=1;fontFamily=Helvetica;fontSize=20;align=left;fillColor=#E6E6E6;" parent="jwZwRtwFp60XTxuanfma-42" vertex="1">
          <mxGeometry x="50" y="16" width="10" height="10" as="geometry" />
        </mxCell>
        <mxCell id="jwZwRtwFp60XTxuanfma-50" value="" style="whiteSpace=wrap;html=1;aspect=fixed;labelBackgroundColor=none;strokeWidth=1;fontFamily=Helvetica;fontSize=20;align=left;fillColor=#E6E6E6;" parent="jwZwRtwFp60XTxuanfma-42" vertex="1">
          <mxGeometry x="60" y="16" width="10" height="10" as="geometry" />
        </mxCell>
        <mxCell id="jwZwRtwFp60XTxuanfma-51" value="" style="whiteSpace=wrap;html=1;aspect=fixed;labelBackgroundColor=none;strokeWidth=1;fontFamily=Helvetica;fontSize=20;align=left;fillColor=#E6E6E6;" parent="jwZwRtwFp60XTxuanfma-42" vertex="1">
          <mxGeometry y="26" width="10" height="10" as="geometry" />
        </mxCell>
        <mxCell id="jwZwRtwFp60XTxuanfma-52" value="" style="whiteSpace=wrap;html=1;aspect=fixed;labelBackgroundColor=none;strokeWidth=1;fontFamily=Helvetica;fontSize=20;align=left;fillColor=#E6E6E6;" parent="jwZwRtwFp60XTxuanfma-42" vertex="1">
          <mxGeometry x="10" y="26" width="10" height="10" as="geometry" />
        </mxCell>
        <mxCell id="jwZwRtwFp60XTxuanfma-53" value="" style="whiteSpace=wrap;html=1;aspect=fixed;labelBackgroundColor=none;strokeWidth=1;fontFamily=Helvetica;fontSize=20;align=left;fillColor=#E6E6E6;" parent="jwZwRtwFp60XTxuanfma-42" vertex="1">
          <mxGeometry x="20" y="26" width="10" height="10" as="geometry" />
        </mxCell>
        <mxCell id="jwZwRtwFp60XTxuanfma-54" value="" style="whiteSpace=wrap;html=1;aspect=fixed;labelBackgroundColor=none;strokeWidth=1;fontFamily=Helvetica;fontSize=20;align=left;fillColor=#E6E6E6;" parent="jwZwRtwFp60XTxuanfma-42" vertex="1">
          <mxGeometry x="30" y="26" width="10" height="10" as="geometry" />
        </mxCell>
        <mxCell id="jwZwRtwFp60XTxuanfma-55" value="" style="whiteSpace=wrap;html=1;aspect=fixed;labelBackgroundColor=none;strokeWidth=1;fillColor=#ffffff;fontFamily=Helvetica;fontSize=20;align=left;" parent="jwZwRtwFp60XTxuanfma-42" vertex="1">
          <mxGeometry x="40" y="26" width="10" height="10" as="geometry" />
        </mxCell>
        <mxCell id="jwZwRtwFp60XTxuanfma-56" value="" style="whiteSpace=wrap;html=1;aspect=fixed;labelBackgroundColor=none;strokeWidth=1;fillColor=#ffffff;fontFamily=Helvetica;fontSize=20;align=left;" parent="jwZwRtwFp60XTxuanfma-42" vertex="1">
          <mxGeometry x="50" y="26" width="10" height="10" as="geometry" />
        </mxCell>
        <mxCell id="jwZwRtwFp60XTxuanfma-57" value="" style="whiteSpace=wrap;html=1;aspect=fixed;labelBackgroundColor=none;strokeWidth=1;fillColor=#ffffff;fontFamily=Helvetica;fontSize=20;align=left;" parent="jwZwRtwFp60XTxuanfma-42" vertex="1">
          <mxGeometry x="60" y="26" width="10" height="10" as="geometry" />
        </mxCell>
        <mxCell id="jwZwRtwFp60XTxuanfma-58" value="" style="whiteSpace=wrap;html=1;aspect=fixed;labelBackgroundColor=none;strokeWidth=1;fillColor=#ffffff;fontFamily=Helvetica;fontSize=20;align=left;" parent="jwZwRtwFp60XTxuanfma-42" vertex="1">
          <mxGeometry y="36" width="10" height="10" as="geometry" />
        </mxCell>
        <mxCell id="jwZwRtwFp60XTxuanfma-59" value="" style="whiteSpace=wrap;html=1;aspect=fixed;labelBackgroundColor=none;strokeWidth=1;fillColor=#ffffff;fontFamily=Helvetica;fontSize=20;align=left;" parent="jwZwRtwFp60XTxuanfma-42" vertex="1">
          <mxGeometry x="10" y="36" width="10" height="10" as="geometry" />
        </mxCell>
        <mxCell id="jwZwRtwFp60XTxuanfma-60" value="" style="whiteSpace=wrap;html=1;aspect=fixed;labelBackgroundColor=none;strokeWidth=1;fillColor=#ffffff;fontFamily=Helvetica;fontSize=20;align=left;" parent="jwZwRtwFp60XTxuanfma-42" vertex="1">
          <mxGeometry x="20" y="36" width="10" height="10" as="geometry" />
        </mxCell>
        <mxCell id="jwZwRtwFp60XTxuanfma-61" value="" style="whiteSpace=wrap;html=1;aspect=fixed;labelBackgroundColor=none;strokeWidth=1;fillColor=#ffffff;fontFamily=Helvetica;fontSize=20;align=left;" parent="jwZwRtwFp60XTxuanfma-42" vertex="1">
          <mxGeometry x="30" y="36" width="10" height="10" as="geometry" />
        </mxCell>
        <mxCell id="jwZwRtwFp60XTxuanfma-62" value="" style="whiteSpace=wrap;html=1;aspect=fixed;labelBackgroundColor=none;strokeWidth=1;fillColor=#ffffff;fontFamily=Helvetica;fontSize=20;align=left;" parent="jwZwRtwFp60XTxuanfma-42" vertex="1">
          <mxGeometry x="40" y="36" width="10" height="10" as="geometry" />
        </mxCell>
        <mxCell id="jwZwRtwFp60XTxuanfma-63" value="" style="whiteSpace=wrap;html=1;aspect=fixed;labelBackgroundColor=none;strokeWidth=1;fillColor=#ffffff;fontFamily=Helvetica;fontSize=20;align=left;" parent="jwZwRtwFp60XTxuanfma-42" vertex="1">
          <mxGeometry x="50" y="36" width="10" height="10" as="geometry" />
        </mxCell>
        <mxCell id="jwZwRtwFp60XTxuanfma-64" value="" style="whiteSpace=wrap;html=1;aspect=fixed;labelBackgroundColor=none;strokeWidth=1;fillColor=#ffffff;fontFamily=Helvetica;fontSize=20;align=left;" parent="jwZwRtwFp60XTxuanfma-42" vertex="1">
          <mxGeometry x="60" y="36" width="10" height="10" as="geometry" />
        </mxCell>
        <mxCell id="jwZwRtwFp60XTxuanfma-65" value="" style="whiteSpace=wrap;html=1;aspect=fixed;labelBackgroundColor=none;strokeWidth=1;fillColor=#ffffff;fontFamily=Helvetica;fontSize=20;align=left;" parent="jwZwRtwFp60XTxuanfma-42" vertex="1">
          <mxGeometry y="6" width="10" height="10" as="geometry" />
        </mxCell>
        <mxCell id="jwZwRtwFp60XTxuanfma-66" value="" style="whiteSpace=wrap;html=1;aspect=fixed;labelBackgroundColor=none;strokeWidth=1;fillColor=#ffffff;fontFamily=Helvetica;fontSize=20;align=left;" parent="jwZwRtwFp60XTxuanfma-42" vertex="1">
          <mxGeometry x="10" y="6" width="10" height="10" as="geometry" />
        </mxCell>
        <mxCell id="jwZwRtwFp60XTxuanfma-67" value="" style="whiteSpace=wrap;html=1;aspect=fixed;labelBackgroundColor=none;strokeWidth=1;fillColor=#ffffff;fontFamily=Helvetica;fontSize=20;align=left;" parent="jwZwRtwFp60XTxuanfma-42" vertex="1">
          <mxGeometry x="20" y="6" width="10" height="10" as="geometry" />
        </mxCell>
        <mxCell id="jwZwRtwFp60XTxuanfma-68" value="" style="whiteSpace=wrap;html=1;aspect=fixed;labelBackgroundColor=none;strokeWidth=1;fillColor=#ffffff;fontFamily=Helvetica;fontSize=20;align=left;" parent="jwZwRtwFp60XTxuanfma-42" vertex="1">
          <mxGeometry x="30" y="6" width="10" height="10" as="geometry" />
        </mxCell>
        <mxCell id="jwZwRtwFp60XTxuanfma-69" value="" style="whiteSpace=wrap;html=1;aspect=fixed;labelBackgroundColor=none;strokeWidth=1;fillColor=#ffffff;fontFamily=Helvetica;fontSize=20;align=left;" parent="jwZwRtwFp60XTxuanfma-42" vertex="1">
          <mxGeometry x="40" y="6" width="10" height="10" as="geometry" />
        </mxCell>
        <mxCell id="jwZwRtwFp60XTxuanfma-70" value="" style="whiteSpace=wrap;html=1;aspect=fixed;labelBackgroundColor=none;strokeWidth=1;fillColor=#ffffff;fontFamily=Helvetica;fontSize=20;align=left;" parent="jwZwRtwFp60XTxuanfma-42" vertex="1">
          <mxGeometry x="50" y="6" width="10" height="10" as="geometry" />
        </mxCell>
        <mxCell id="jwZwRtwFp60XTxuanfma-71" value="" style="whiteSpace=wrap;html=1;aspect=fixed;labelBackgroundColor=none;strokeWidth=1;fillColor=#ffffff;fontFamily=Helvetica;fontSize=20;align=left;" parent="jwZwRtwFp60XTxuanfma-42" vertex="1">
          <mxGeometry x="60" y="6" width="10" height="10" as="geometry" />
        </mxCell>
        <mxCell id="jwZwRtwFp60XTxuanfma-72" value="Schdule" style="rounded=1;whiteSpace=wrap;html=1;labelBackgroundColor=none;fontFamily=Helvetica;fontSize=8;align=center;fillColor=#99CCFF;" parent="9DNuE8OTtdYEcTD2hJGC-1" vertex="1">
          <mxGeometry x="715" y="748" width="55" height="10" as="geometry" />
        </mxCell>
        <mxCell id="jwZwRtwFp60XTxuanfma-75" value="Buy Now" style="rounded=1;whiteSpace=wrap;html=1;labelBackgroundColor=none;fontFamily=Helvetica;fontSize=8;align=center;fillColor=#99CCFF;" parent="9DNuE8OTtdYEcTD2hJGC-1" vertex="1">
          <mxGeometry x="715" y="763" width="55" height="7" as="geometry" />
        </mxCell>
        <mxCell id="jwZwRtwFp60XTxuanfma-76" value="" style="group" parent="9DNuE8OTtdYEcTD2hJGC-1" vertex="1" connectable="0">
          <mxGeometry x="620" y="743" width="30" height="49" as="geometry" />
        </mxCell>
        <mxCell id="jwZwRtwFp60XTxuanfma-77" value="" style="group" parent="jwZwRtwFp60XTxuanfma-76" vertex="1" connectable="0">
          <mxGeometry width="30" height="49" as="geometry" />
        </mxCell>
        <mxCell id="jwZwRtwFp60XTxuanfma-78" value="" style="rounded=0;whiteSpace=wrap;html=1;labelBackgroundColor=none;strokeWidth=1;fontFamily=Helvetica;fontSize=20;align=left;fillColor=#FFFFFF;" parent="jwZwRtwFp60XTxuanfma-77" vertex="1">
          <mxGeometry width="30" height="48.51" as="geometry" />
        </mxCell>
        <mxCell id="jwZwRtwFp60XTxuanfma-79" value="" style="rounded=0;whiteSpace=wrap;html=1;labelBackgroundColor=none;strokeWidth=1;fillColor=#FFFFFF;fontFamily=Helvetica;fontSize=20;align=left;" parent="jwZwRtwFp60XTxuanfma-77" vertex="1">
          <mxGeometry width="30" height="9.8" as="geometry" />
        </mxCell>
        <mxCell id="jwZwRtwFp60XTxuanfma-80" value="" style="rounded=0;whiteSpace=wrap;html=1;labelBackgroundColor=none;strokeWidth=1;fillColor=#FFFFFF;fontFamily=Helvetica;fontSize=20;align=left;" parent="jwZwRtwFp60XTxuanfma-77" vertex="1">
          <mxGeometry y="9.8" width="30" height="9.8" as="geometry" />
        </mxCell>
        <mxCell id="jwZwRtwFp60XTxuanfma-81" value="" style="rounded=0;whiteSpace=wrap;html=1;labelBackgroundColor=none;strokeWidth=1;fillColor=#FFFFFF;fontFamily=Helvetica;fontSize=20;align=left;" parent="jwZwRtwFp60XTxuanfma-77" vertex="1">
          <mxGeometry y="19.6" width="30" height="9.8" as="geometry" />
        </mxCell>
        <mxCell id="jwZwRtwFp60XTxuanfma-82" value="" style="rounded=0;whiteSpace=wrap;html=1;labelBackgroundColor=none;strokeWidth=1;fillColor=#FFFFFF;fontFamily=Helvetica;fontSize=20;align=left;" parent="jwZwRtwFp60XTxuanfma-77" vertex="1">
          <mxGeometry y="29.4" width="30" height="9.8" as="geometry" />
        </mxCell>
        <mxCell id="jwZwRtwFp60XTxuanfma-83" value="" style="rounded=0;whiteSpace=wrap;html=1;labelBackgroundColor=none;strokeWidth=1;fillColor=#FFFFFF;fontFamily=Helvetica;fontSize=20;align=left;" parent="jwZwRtwFp60XTxuanfma-77" vertex="1">
          <mxGeometry y="39.2" width="30" height="9.8" as="geometry" />
        </mxCell>
      </root>
    </mxGraphModel>
  </diagram>
  <diagram id="0dYGD9n3if06vvuGsaDY" name="Connect">
    <mxGraphModel dx="868" dy="733" grid="1" gridSize="10" guides="1" tooltips="1" connect="1" arrows="1" fold="1" page="1" pageScale="1" pageWidth="1400" pageHeight="850" math="0" shadow="0">
      <root>
        <mxCell id="cTo9uMeB8U-D2Zk_KOUf-0" />
        <mxCell id="cTo9uMeB8U-D2Zk_KOUf-1" parent="cTo9uMeB8U-D2Zk_KOUf-0" />
        <mxCell id="SwN7kfREa093MoWUud_x-0" style="edgeStyle=orthogonalEdgeStyle;rounded=0;orthogonalLoop=1;jettySize=auto;html=1;entryX=0.5;entryY=0;entryDx=0;entryDy=0;fontFamily=Helvetica;fontSize=8;" parent="cTo9uMeB8U-D2Zk_KOUf-1" source="YrkElUqmEiVA9ehQGilw-0" target="YrkElUqmEiVA9ehQGilw-29" edge="1">
          <mxGeometry relative="1" as="geometry" />
        </mxCell>
        <mxCell id="YrkElUqmEiVA9ehQGilw-0" value="" style="rounded=0;whiteSpace=wrap;html=1;" parent="cTo9uMeB8U-D2Zk_KOUf-1" vertex="1">
          <mxGeometry x="40" y="160" width="220" height="290" as="geometry" />
        </mxCell>
        <mxCell id="YrkElUqmEiVA9ehQGilw-1" value="HOME PAGE" style="text;html=1;strokeColor=none;fillColor=none;align=center;verticalAlign=middle;whiteSpace=wrap;rounded=0;fontSize=5;" parent="cTo9uMeB8U-D2Zk_KOUf-1" vertex="1">
          <mxGeometry x="40" y="140" width="40" height="20" as="geometry" />
        </mxCell>
        <mxCell id="YrkElUqmEiVA9ehQGilw-2" value="" style="group" parent="cTo9uMeB8U-D2Zk_KOUf-1" vertex="1" connectable="0">
          <mxGeometry x="90" y="230" width="50" height="76" as="geometry" />
        </mxCell>
        <mxCell id="YrkElUqmEiVA9ehQGilw-3" value="" style="rounded=0;whiteSpace=wrap;html=1;fontSize=5;" parent="YrkElUqmEiVA9ehQGilw-2" vertex="1">
          <mxGeometry width="50" height="60" as="geometry" />
        </mxCell>
        <mxCell id="YrkElUqmEiVA9ehQGilw-4" value="$20/wk $3/da 4 day min" style="text;html=1;strokeColor=none;fillColor=none;align=left;verticalAlign=middle;whiteSpace=wrap;rounded=0;fontSize=4;fontFamily=Helvetica;" parent="YrkElUqmEiVA9ehQGilw-2" vertex="1">
          <mxGeometry y="60" width="50" height="10" as="geometry" />
        </mxCell>
        <mxCell id="YrkElUqmEiVA9ehQGilw-5" value="West Chester, PA" style="text;html=1;strokeColor=none;fillColor=none;align=left;verticalAlign=middle;whiteSpace=wrap;rounded=0;fontSize=3;fontFamily=Helvetica;" parent="YrkElUqmEiVA9ehQGilw-2" vertex="1">
          <mxGeometry y="66" width="50" height="10" as="geometry" />
        </mxCell>
        <mxCell id="YrkElUqmEiVA9ehQGilw-6" value="" style="group" parent="cTo9uMeB8U-D2Zk_KOUf-1" vertex="1" connectable="0">
          <mxGeometry x="145" y="230" width="50" height="76" as="geometry" />
        </mxCell>
        <mxCell id="YrkElUqmEiVA9ehQGilw-7" value="" style="rounded=0;whiteSpace=wrap;html=1;fontSize=5;" parent="YrkElUqmEiVA9ehQGilw-6" vertex="1">
          <mxGeometry width="50" height="60" as="geometry" />
        </mxCell>
        <mxCell id="YrkElUqmEiVA9ehQGilw-8" value="$20/wk $3/da 4 day min" style="text;html=1;strokeColor=none;fillColor=none;align=left;verticalAlign=middle;whiteSpace=wrap;rounded=0;fontSize=4;fontFamily=Helvetica;" parent="YrkElUqmEiVA9ehQGilw-6" vertex="1">
          <mxGeometry y="60" width="50" height="10" as="geometry" />
        </mxCell>
        <mxCell id="YrkElUqmEiVA9ehQGilw-9" value="West Chester, PA" style="text;html=1;strokeColor=none;fillColor=none;align=left;verticalAlign=middle;whiteSpace=wrap;rounded=0;fontSize=3;fontFamily=Helvetica;" parent="YrkElUqmEiVA9ehQGilw-6" vertex="1">
          <mxGeometry y="66" width="50" height="10" as="geometry" />
        </mxCell>
        <mxCell id="YrkElUqmEiVA9ehQGilw-10" value="" style="group" parent="cTo9uMeB8U-D2Zk_KOUf-1" vertex="1" connectable="0">
          <mxGeometry x="200" y="230" width="50" height="76" as="geometry" />
        </mxCell>
        <mxCell id="YrkElUqmEiVA9ehQGilw-11" value="" style="rounded=0;whiteSpace=wrap;html=1;fontSize=5;" parent="YrkElUqmEiVA9ehQGilw-10" vertex="1">
          <mxGeometry width="50" height="60" as="geometry" />
        </mxCell>
        <mxCell id="YrkElUqmEiVA9ehQGilw-12" value="$20/wk $3/da 4 day min" style="text;html=1;strokeColor=none;fillColor=none;align=left;verticalAlign=middle;whiteSpace=wrap;rounded=0;fontSize=4;fontFamily=Helvetica;" parent="YrkElUqmEiVA9ehQGilw-10" vertex="1">
          <mxGeometry y="60" width="50" height="10" as="geometry" />
        </mxCell>
        <mxCell id="YrkElUqmEiVA9ehQGilw-13" value="West Chester, PA" style="text;html=1;strokeColor=none;fillColor=none;align=left;verticalAlign=middle;whiteSpace=wrap;rounded=0;fontSize=3;fontFamily=Helvetica;" parent="YrkElUqmEiVA9ehQGilw-10" vertex="1">
          <mxGeometry y="66" width="50" height="10" as="geometry" />
        </mxCell>
        <mxCell id="YrkElUqmEiVA9ehQGilw-14" value="" style="group" parent="cTo9uMeB8U-D2Zk_KOUf-1" vertex="1" connectable="0">
          <mxGeometry x="90" y="310" width="50" height="76" as="geometry" />
        </mxCell>
        <mxCell id="YrkElUqmEiVA9ehQGilw-15" value="" style="rounded=0;whiteSpace=wrap;html=1;fontSize=5;" parent="YrkElUqmEiVA9ehQGilw-14" vertex="1">
          <mxGeometry width="50" height="60" as="geometry" />
        </mxCell>
        <mxCell id="YrkElUqmEiVA9ehQGilw-16" value="$20/wk $3/da 4 day min" style="text;html=1;strokeColor=none;fillColor=none;align=left;verticalAlign=middle;whiteSpace=wrap;rounded=0;fontSize=4;fontFamily=Helvetica;" parent="YrkElUqmEiVA9ehQGilw-14" vertex="1">
          <mxGeometry y="60" width="50" height="10" as="geometry" />
        </mxCell>
        <mxCell id="YrkElUqmEiVA9ehQGilw-17" value="West Chester, PA" style="text;html=1;strokeColor=none;fillColor=none;align=left;verticalAlign=middle;whiteSpace=wrap;rounded=0;fontSize=3;fontFamily=Helvetica;" parent="YrkElUqmEiVA9ehQGilw-14" vertex="1">
          <mxGeometry y="66" width="50" height="10" as="geometry" />
        </mxCell>
        <mxCell id="YrkElUqmEiVA9ehQGilw-18" value="" style="group" parent="cTo9uMeB8U-D2Zk_KOUf-1" vertex="1" connectable="0">
          <mxGeometry x="145" y="310" width="50" height="76" as="geometry" />
        </mxCell>
        <mxCell id="YrkElUqmEiVA9ehQGilw-19" value="" style="rounded=0;whiteSpace=wrap;html=1;fontSize=5;" parent="YrkElUqmEiVA9ehQGilw-18" vertex="1">
          <mxGeometry width="50" height="60" as="geometry" />
        </mxCell>
        <mxCell id="YrkElUqmEiVA9ehQGilw-20" value="$20/wk $3/da 4 day min" style="text;html=1;strokeColor=none;fillColor=none;align=left;verticalAlign=middle;whiteSpace=wrap;rounded=0;fontSize=4;fontFamily=Helvetica;" parent="YrkElUqmEiVA9ehQGilw-18" vertex="1">
          <mxGeometry y="60" width="50" height="10" as="geometry" />
        </mxCell>
        <mxCell id="YrkElUqmEiVA9ehQGilw-21" value="West Chester, PA" style="text;html=1;strokeColor=none;fillColor=none;align=left;verticalAlign=middle;whiteSpace=wrap;rounded=0;fontSize=3;fontFamily=Helvetica;" parent="YrkElUqmEiVA9ehQGilw-18" vertex="1">
          <mxGeometry y="66" width="50" height="10" as="geometry" />
        </mxCell>
        <mxCell id="YrkElUqmEiVA9ehQGilw-22" value="" style="group" parent="cTo9uMeB8U-D2Zk_KOUf-1" vertex="1" connectable="0">
          <mxGeometry x="200" y="310" width="50" height="76" as="geometry" />
        </mxCell>
        <mxCell id="YrkElUqmEiVA9ehQGilw-23" value="" style="rounded=0;whiteSpace=wrap;html=1;fontSize=5;" parent="YrkElUqmEiVA9ehQGilw-22" vertex="1">
          <mxGeometry width="50" height="60" as="geometry" />
        </mxCell>
        <mxCell id="YrkElUqmEiVA9ehQGilw-24" value="$20/wk $3/da 4 day min" style="text;html=1;strokeColor=none;fillColor=none;align=left;verticalAlign=middle;whiteSpace=wrap;rounded=0;fontSize=4;fontFamily=Helvetica;" parent="YrkElUqmEiVA9ehQGilw-22" vertex="1">
          <mxGeometry y="60" width="50" height="10" as="geometry" />
        </mxCell>
        <mxCell id="YrkElUqmEiVA9ehQGilw-25" value="West Chester, PA" style="text;html=1;strokeColor=none;fillColor=none;align=left;verticalAlign=middle;whiteSpace=wrap;rounded=0;fontSize=3;fontFamily=Helvetica;" parent="YrkElUqmEiVA9ehQGilw-22" vertex="1">
          <mxGeometry y="66" width="50" height="10" as="geometry" />
        </mxCell>
        <mxCell id="YrkElUqmEiVA9ehQGilw-26" value="" style="rounded=0;whiteSpace=wrap;html=1;fontFamily=Helvetica;fontSize=3;align=left;" parent="cTo9uMeB8U-D2Zk_KOUf-1" vertex="1">
          <mxGeometry x="40" y="230" width="40" height="200" as="geometry" />
        </mxCell>
        <mxCell id="YrkElUqmEiVA9ehQGilw-27" value="" style="rounded=0;whiteSpace=wrap;html=1;fontFamily=Helvetica;fontSize=3;align=left;" parent="cTo9uMeB8U-D2Zk_KOUf-1" vertex="1">
          <mxGeometry x="90" y="210" width="160" height="10" as="geometry" />
        </mxCell>
        <mxCell id="YrkElUqmEiVA9ehQGilw-28" value="" style="rounded=0;whiteSpace=wrap;html=1;fontFamily=Helvetica;fontSize=3;align=left;" parent="cTo9uMeB8U-D2Zk_KOUf-1" vertex="1">
          <mxGeometry x="40" y="160" width="220" height="10" as="geometry" />
        </mxCell>
        <mxCell id="YrkElUqmEiVA9ehQGilw-29" value="" style="rounded=0;whiteSpace=wrap;html=1;" parent="cTo9uMeB8U-D2Zk_KOUf-1" vertex="1">
          <mxGeometry x="40" y="480" width="220" height="290" as="geometry" />
        </mxCell>
      </root>
    </mxGraphModel>
  </diagram>
  <diagram id="6vgQqNxxXKKjzdKMGg5E" name="Domain Mapping">
    <mxGraphModel dx="868" dy="733" grid="1" gridSize="10" guides="1" tooltips="1" connect="1" arrows="1" fold="1" page="1" pageScale="1" pageWidth="850" pageHeight="1400" math="0" shadow="0">
      <root>
        <mxCell id="2m3a2TssAmpNVT5GWGFf-0" />
        <mxCell id="2m3a2TssAmpNVT5GWGFf-1" parent="2m3a2TssAmpNVT5GWGFf-0" />
        <mxCell id="s9mYgDa3QzWGqOPVjBJL-0" value="" style="rounded=0;whiteSpace=wrap;html=1;" vertex="1" parent="2m3a2TssAmpNVT5GWGFf-1">
          <mxGeometry x="140" y="110" width="180" height="60" as="geometry" />
        </mxCell>
        <mxCell id="s9mYgDa3QzWGqOPVjBJL-1" value="User" style="text;html=1;strokeColor=none;fillColor=none;align=center;verticalAlign=middle;whiteSpace=wrap;rounded=0;" vertex="1" parent="2m3a2TssAmpNVT5GWGFf-1">
          <mxGeometry x="140" y="80" width="40" height="20" as="geometry" />
        </mxCell>
        <mxCell id="s9mYgDa3QzWGqOPVjBJL-2" value="" style="rounded=0;whiteSpace=wrap;html=1;" vertex="1" parent="2m3a2TssAmpNVT5GWGFf-1">
          <mxGeometry x="365" y="110" width="225" height="60" as="geometry" />
        </mxCell>
        <mxCell id="s9mYgDa3QzWGqOPVjBJL-3" value="Sharable" style="text;html=1;strokeColor=none;fillColor=none;align=left;verticalAlign=middle;whiteSpace=wrap;rounded=0;" vertex="1" parent="2m3a2TssAmpNVT5GWGFf-1">
          <mxGeometry x="365" y="80" width="75" height="20" as="geometry" />
        </mxCell>
        <mxCell id="s9mYgDa3QzWGqOPVjBJL-5" value="" style="rounded=0;whiteSpace=wrap;html=1;" vertex="1" parent="2m3a2TssAmpNVT5GWGFf-1">
          <mxGeometry x="140" y="230" width="225" height="60" as="geometry" />
        </mxCell>
        <mxCell id="s9mYgDa3QzWGqOPVjBJL-6" value="Booking" style="text;html=1;strokeColor=none;fillColor=none;align=left;verticalAlign=middle;whiteSpace=wrap;rounded=0;" vertex="1" parent="2m3a2TssAmpNVT5GWGFf-1">
          <mxGeometry x="140" y="200" width="75" height="20" as="geometry" />
        </mxCell>
        <mxCell id="s9mYgDa3QzWGqOPVjBJL-7" value="" style="rounded=0;whiteSpace=wrap;html=1;" vertex="1" parent="2m3a2TssAmpNVT5GWGFf-1">
          <mxGeometry x="390" y="230" width="225" height="60" as="geometry" />
        </mxCell>
        <mxCell id="s9mYgDa3QzWGqOPVjBJL-8" value="Availability" style="text;html=1;strokeColor=none;fillColor=none;align=left;verticalAlign=middle;whiteSpace=wrap;rounded=0;" vertex="1" parent="2m3a2TssAmpNVT5GWGFf-1">
          <mxGeometry x="390" y="200" width="75" height="20" as="geometry" />
        </mxCell>
      </root>
    </mxGraphModel>
  </diagram>
  <diagram id="xvwk7gatikSvpD04T1G6" name="Services">
    <mxGraphModel dx="868" dy="733" grid="1" gridSize="10" guides="1" tooltips="1" connect="1" arrows="1" fold="1" page="1" pageScale="1" pageWidth="850" pageHeight="1100" math="0" shadow="0">
      <root>
        <mxCell id="0Bax2XwNX62XlNCytH4g-0" />
        <mxCell id="0Bax2XwNX62XlNCytH4g-1" parent="0Bax2XwNX62XlNCytH4g-0" />
        <mxCell id="0Bax2XwNX62XlNCytH4g-2" value="" style="rounded=0;whiteSpace=wrap;html=1;" vertex="1" parent="0Bax2XwNX62XlNCytH4g-1">
          <mxGeometry x="150" y="240" width="120" height="180" as="geometry" />
        </mxCell>
        <mxCell id="0Bax2XwNX62XlNCytH4g-3" value="" style="rounded=0;whiteSpace=wrap;html=1;" vertex="1" parent="0Bax2XwNX62XlNCytH4g-1">
          <mxGeometry x="80" y="270" width="120" height="130" as="geometry" />
        </mxCell>
        <mxCell id="0Bax2XwNX62XlNCytH4g-4" value="" style="rounded=0;whiteSpace=wrap;html=1;" vertex="1" parent="0Bax2XwNX62XlNCytH4g-1">
          <mxGeometry x="230" y="270" width="120" height="130" as="geometry" />
        </mxCell>
        <mxCell id="0Bax2XwNX62XlNCytH4g-5" value="&lt;b&gt;Input Events&lt;/b&gt;&lt;br&gt;Create Account&lt;br&gt;Update Profile" style="text;html=1;strokeColor=none;fillColor=none;align=left;verticalAlign=top;whiteSpace=wrap;rounded=0;" vertex="1" parent="0Bax2XwNX62XlNCytH4g-1">
          <mxGeometry x="90" y="280" width="100" height="110" as="geometry" />
        </mxCell>
        <mxCell id="0Bax2XwNX62XlNCytH4g-7" value="&lt;b&gt;Output Events&lt;/b&gt;&lt;br&gt;" style="text;html=1;strokeColor=none;fillColor=none;align=left;verticalAlign=top;whiteSpace=wrap;rounded=0;" vertex="1" parent="0Bax2XwNX62XlNCytH4g-1">
          <mxGeometry x="240" y="280" width="100" height="110" as="geometry" />
        </mxCell>
      </root>
    </mxGraphModel>
  </diagram>
</mxfile>
